<svg xmlns:dc="https://purl.org/dc/elements/1.1/" xmlns:cc="https://creativecommons.org/ns#" xmlns:rdf="https://www.w3.org/1999/02/22-rdf-syntax-ns#" xmlns:svg="https://www.w3.org/2000/svg" xmlns="https://www.w3.org/2000/svg"
  xmlns:sodipodi="https://sodipodi.sourceforge.net/DTD/sodipodi-0.dtd" xmlns:inkscape="https://www.inkscape.org/namespaces/inkscape" version="1.1" id="Capa_1" x="0px" y="0px" viewBox="0 0 156.8 197" style="enable-background:new 0 0 156.8 197;"
  xml:space="preserve" sodipodi:docname="mapa-de-barris-menu-bo.svg" inkscape:version="0.92.4 (5da689c313, 2019-01-14)">
  <metadata id="metadata354">
    <rdf:RDF>
      <cc:Work rdf:about="">
        <dc:format>image/svg+xml</dc:format>
        <dc:type rdf:resource="https://purl.org/dc/dcmitype/StillImage" />
      </cc:Work>
    </rdf:RDF>
  </metadata>
  <defs id="defs352">
  </defs>
  <sodipodi:namedview pagecolor="#ffffff" bordercolor="#666666" borderopacity="1" objecttolerance="10" gridtolerance="10" guidetolerance="10" inkscape:pageopacity="0" inkscape:pageshadow="2" inkscape:window-width="1920"
    inkscape:window-height="1027" id="namedview350" showgrid="false" inkscape:zoom="4.3654822" inkscape:cx="38.083722" inkscape:cy="61.848837" inkscape:window-x="1272" inkscape:window-y="-8" inkscape:window-maximized="1"
    inkscape:current-layer="Capa_1" />
  <style type="text/css" id="style183">
    .st0 {
      fill: #D9D9D9;
    }
  </style>
  <path class="st0" d="M114.2,79.8c0,0,0.8-0.7,0.8-1.7l0.3-4.8c0,0,0.1-1-0.6-1.8l-2.2-2.4c0,0-0.7-0.8-1.4-0.1l-5.8,5.2  c0,0-0.8,0.7-0.1,1.4l5.4,6c0,0,0.7,0.8,1.4,0.1L114.2,79.8z" id="camp-arpa-clot" />
  <path class="st0" d="M111.4,66.9c0.3-0.2,0.7-0.2,1,0.1l4.7,5.2c0,0,0.4,0.5,0.9,0l1.3-1.2l-0.1-0.8c0,0-0.1-0.8-0.8-1.6l-4.8-5.4  c0,0-0.6-0.7-1.3-0.1l-1.2,1.1c0,0-0.7,0.6-0.8,1.6l-0.3,2c0,0-0.1,0.6,0.4,0.2L111.4,66.9z" id="navas" />
  <path class="st0" d="M115.9,84.6c0,0,0.5,0.3,1.2-0.3l6.7-6.1c0,0,0.8-0.7,0.1-1.4l-3.4-3.8c0,0-0.6-0.7-1.3-0.1l-1.4,1.2  c-0.3,0.3-0.7,0.2-1-0.1l-0.1-0.1c0,0-0.1-0.1-0.2,0.9l-0.2,4.7c0,0.2-0.1,0.3-0.2,0.5l-3.2,2.9c0,0-0.8,0.7-0.3,1.2  c0,0-0.5-0.6,0,0c0,0,0.5,0.6,1,0.3C114.2,84.1,115.4,84.3,115.9,84.6"
    id="clot" />
  <path class="st0" d="M122,97.9c0,0,0.7-0.6,0.1-1.3l-1.1-1.2c-0.2-0.2-0.2-0.6-0.1-0.8l2.9-4.3c0,0,0.6-0.8-0.1-1.6l-3.6-4  c0,0-0.7-0.8-1.4-0.1c0,0,0.8-0.7-0.7,0.6c0,0-0.8,0.7-0.4,1.3c0.4,0.6,0.1,2.3-1,3.3c-0.4,0.4-1,0.7-1.3,0.7c0,0-0.3,0.1-0.4,1.1  l-0.7,7.9c0,0.2-0.1,0.3-0.2,0.4l-3.7,3.3c0,0-0.2,0.2,0,0.4l0.7,0.8c0,0,0.4,0.5,0.9,0l1.4-1.3c0.3-0.3,0.7-0.2,1,0.1l0.3,0.4  c0,0,0.3,0.4,1.1-0.3L122,97.9z"
    id="parc-llacuna-poblenou" />
  <path class="st0" d="M97.8,81c0,0-0.8,0.7-0.1,1.4l2.3,2.5c0.3,0.3,0.2,0.7-0.1,1L98.7,87c0,0-0.8,0.7-0.1,1.4l1.4,1.6  c0,0,0.7,0.8,1.7,0.5c0,0-1,0.3,8.6-2.5c0,0,1-0.3,0.9-0.7c0-0.4,0.2-1.2,0.5-1.6c0,0,0.3-0.3-0.4-1.1l-7.3-8.1c0,0-0.7-0.8-1.4-0.1  L97.8,81z"
    id="sagrada-familia" />
  <path class="st0" d="M113.6,91.6c0,0,0.1-1-0.2-1.1c-0.3-0.1-0.9-0.4-1.3-0.9c-0.2-0.2-0.3-0.4-0.4-0.6c0,0-0.1-0.1-1,0.2l-7.9,2.4  c0,0-1,0.3-0.3,1l2.8,3.1c0.3,0.3,0.2,0.7-0.1,1l-1.2,1.1c0,0-0.8,0.7-0.1,1.4l3.1,3.4l0.8-0.7c0.3-0.3,0.7-0.2,1,0.1l0.2,0.2  c0,0,0.2,0.2,1-0.4l2.2-2c0,0,0.8-0.7,0.8-1.7L113.6,91.6z"
    id="fort-pienc" />
  <path class="st0" d="M91,124.6c0,0,1,0.1,0.3-0.7l-3.5-3.9c-0.2-0.2-0.2-0.4-0.1-0.6l2.1-7.6c0,0,0.3-1-0.5-0.3l-13,11.7  c0,0-0.8,0.7,0.3,0.7L91,124.6z" id="sant-antoni" />
  <path class="st0" d="M101.7,108c0,0-1-0.1-0.3,0.7l7,7.7c0,0,0.7,0.8,1.6,0.2l8.6-5.1c0,0,0.9-0.5,0.2-1.3l-4.4-4.9  c0,0-0.4-0.5-0.9,0l-1.4,1.3c-0.3,0.3-0.7,0.2-1-0.1l-2-2.2c0,0-0.7-0.8-1.4-0.1l-4.2,3.7c-0.1,0.1-0.3,0.2-0.5,0.2L101.7,108z"
    id="pere-caterina-ribera" />
  <path class="st0" d="M107.6,120.5c0.2,0,0.4,0.1,0.6,0.3l1.5,2.2c0.2,0.2,0.2,0.6,0,0.8l-1.5,2l0.6,0.5c0,0,0.6,0.5,1.2-0.3l1.2-1.5  c0,0,0.6-0.8,0.1-1.6l-2.3-3.6c0,0-0.6-0.9-1.2-1.6l-8-8.9c0,0-0.6-0.7-1.2,0.1l-1,1.4c0,0-0.6,0.8,0,1.7l6.8,10  c0.2,0.2,0.2,0.5,0,0.8l-0.5,0.6l0.5,0.4c0,0,0.5,0.4,1.1-0.4l1.7-2.5C107.2,120.6,107.4,120.5,107.6,120.5"
    id="gotic" />
  <path class="st0" d="M115,133.6c-0.2-0.2-0.3-0.5-0.2-0.8l7.5-18.1c0-0.1,0.1-0.2,0.2-0.3l2-1.7c0,0,0.5-0.4,0.1-0.9l-1.1-1.2  c0,0-0.6-0.7-1.3-0.1l-1.2,1.1c0,0-0.1,0.1-0.1,0.1l-10,6c0,0-0.9,0.5-0.3,1.4l2.8,4.3c0.2,0.2,0.1,0.6,0,0.8l-0.4,0.5  c0,0-0.4,0.5-0.4,1.5l0.6,9.8c0,0.2,0,0.4-0.2,0.5l-1.2,1.4c0,0-0.2,0.2,0,0.4l0.9,0.7c0,0,0.8,0.6,1.4-0.1l2.7-3.3  c0,0,0.4-0.5-0.1-0.9L115,133.6z"
    id="barceloneta" />
  <path class="st0" id="raval" d="M107.2,131.4L107.2,131.4l0.4-0.6c0,0,0.4-0.6-0.4-1.2l-3.6-2.7c-0.3-0.2-0.4-0.6-0.2-0.9l0.3-0.4  c0,0,0.3-0.4-0.2-0.8l-1.1-0.9c-0.3-0.2-0.3-0.6-0.1-0.9l0.3-0.4c0,0,0.3-0.4-0.3-1.2l-6.1-9c0,0-0.6-0.8-1.5-1.3l-2-1  c0,0-0.9-0.5-1.2,0.5l-2.2,7.8c0,0-0.3,1,0.4,1.7l3.5,3.9c0,0,0.7,0.8,1.7,0.8l3.1,0.2c0.1,0,0.3,0.1,0.4,0.1L107.2,131.4z" />
  <path class="st0" d="M70.2,131.2l2-0.1c0,0,0.3,0,0.5-0.2l0.9-0.8c0,0,0.5-0.4,0-0.9l-1.2-1.3c0,0-0.7-0.8-1.4-0.1l-6.4,5.7  c0,0-0.5,0.4-0.4,1l0.3,1.4l0.8,0.1c0,0,0.8,0.1,1.4-0.7l2.7-3.8C69.8,131.3,70,131.2,70.2,131.2" id="font-guatlla" />
  <path class="st0" d="M73.5,125.6c0,0-0.6,0.5,0.1,1.3l2.1,2.3c0.3,0.3,0.2,0.7-0.1,1l-2.3,2.1c-0.1,0.1-0.3,0.2-0.4,0.2l-1.2,0.1  c0,0-1,0.1-1.6,0.9l-1.9,2.6c0,0-0.6,0.8,0.1,1.6l5.2,5.8c0.1,0.2,0.2,0.4,0.2,0.6l-0.2,1.2c-0.1,0.3-0.4,0.6-0.7,0.5l-2.8-0.2  l-0.5,0.4c0,0-0.5,0.4-0.5,1.5l-0.1,2.8c0,0,0,0.3,0.3,0.4l1.1,0.2c0.1,0,0.3,0.1,0.4,0.2l4.5,5c0,0,0.7,0.8,1.4,0.1l14.9-13.4  l9.3-12.9c0,0,0.6-0.8-0.2-1.4l-1.8-1.3c0,0-0.8-0.6-1.8-0.6l-22.4-1.1c0,0-0.3,0-0.5,0.2L73.5,125.6z"
    id="poblesec" />
  <path class="st0" d="M58.9,138.8c0,0-0.5,0.4,0,0.9L60,141c0.3,0.3,0.2,0.7-0.1,1l-2.1,1.9c0,0-0.8,0.7-1.1,1.6l-1.6,4.8  c0,0-0.1,0.3,0.1,0.5l1,1.1c0,0,0.7,0.8,1.6,0.3l7.9-4c0.3-0.1,0.6-0.1,0.8,0.2l0.4,0.4c0,0,0.4,0.4,0.4-0.6l0.1-2.4  c0-0.2,0.1-0.3,0.2-0.5l1.4-1.3c0.1-0.1,0.3-0.2,0.5-0.2l2.5,0.1l0-0.1c0,0,0-0.1-0.7-0.9l-4.7-5.2c0,0-0.4-0.5-1-0.5l-1.7-0.2  c-0.3,0-0.5-0.3-0.6-0.5l-0.2-0.8c0,0-0.2-0.8-0.9-0.2L58.9,138.8z"
    id="marina-port" />
  <path class="st0" d="M46.2,69.4c0,0-0.8,0.7-0.1,1.4l3.1,3.5c0.1,0.1,0.2,0.3,0.2,0.5l-0.2,4.3c0,0-0.1,1,0.4,1.9l1.5,3.4  c0,0,0.4,0.9,1.2,0.4l3.3-2.2c0.2-0.1,0.3-0.1,0.5-0.1c0.2,0,0.3,0.2,0.4,0.3l3.4,5.8c0,0,0.5,0.9,1.2,0.1l4.2-4.3  c0,0,0.7-0.7,0.3-1.6l-2.8-6c-0.1-0.3-0.1-0.6,0.2-0.8l0.9-0.8c0,0,0.5-0.4,0.4-1l-0.1-1.8c0,0-0.1-1-0.8-1.8L58.5,65  c0,0-0.7-0.8-1.4-0.1l-5.5,4.9c-0.3,0.3-0.7,0.2-1-0.1l-1.6-1.7c0,0-0.7-0.8-1.4-0.1L46.2,69.4z"
    id="gervasi-bonanova" />
  <path class="st0" d="M75.6,80.4l0.1-0.1c0,0,0.1-0.1-0.6-0.9L72,76c0,0-0.7-0.8-1.6-1.2l-4.2-2.3c0,0-0.8-0.5-0.8,0.5l0.1,1.8  c0,0.2-0.1,0.4-0.2,0.6l-0.6,0.6c0,0-0.6,0.6-0.2,1.5l2.3,5c0,0,0.4,0.9,1.3,1.5l5.7,4.2c0,0,0.8,0.6,1.7,0.7l1.8,0.4l0.2-0.1  c0,0,0.2-0.1-0.5-0.8l-1.4-1.6c-0.1-0.1-0.2-0.3-0.2-0.4l-0.2-5.3C75.3,80.7,75.4,80.5,75.6,80.4"
    id="putget-farro" />
  <path class="st0" d="M76.6,74.1c0,0,0.7-0.6,0.6-1.5l-0.1-1.7c0,0-0.1-1-0.7-1.8L69.1,61l-0.8,0.7c-0.3,0.3-0.7,0.2-1-0.1l-2.3-2.5  c0,0-0.7-0.8-1.4-0.1l-4,3.6c0,0-0.8,0.7-0.1,1.4l4.9,5.5c0,0,0.7,0.8,1.6,1.2l6.1,3.3c0.1,0,0.1,0.1,0.2,0.1l4.5,5l0.6-0.6  c0,0,0.6-0.6-0.1-1.3l-1.5-1.7c-0.2-0.3-0.2-0.7,0.1-1L76.6,74.1z"
    id="vallcarca-penitents" />
  <path class="st0" d="M79.8,62.4c0.2,0.1,0.3,0.4,0.3,0.6l-0.1,1.3c0,0.1,0,0.2-0.1,0.3l-0.4,0.5c0,0-0.4,0.5,0.3,1.3l2,2.2  c0,0,0.4,0.5,0.9,0l1.1-1c0,0,0.1-0.1,0.1-0.1l7.7-4.1c0,0,0.3-0.1,0.1-0.4l-0.9-1c0,0-0.7-0.8-1.7-0.5l-2.3,0.6  c-0.2,0.1-0.5,0-0.7-0.2l-0.9-1c-0.3-0.3-0.2-0.7,0-1l0.7-0.6c0,0,0.7-0.6,0.4-1.6L85.2,53c0,0-0.3-1-1.1-0.5l-3,1.7  c0,0-0.5,0.3-0.4,0.9l0.3,1.4c0,0.2,0,0.4-0.1,0.6l-2.6,3.3c0,0-0.4,0.5,0.1,0.9L79.8,62.4z"
    id="carmel" />
  <path class="st0" d="M78.8,67.7c0,0,0.2-0.2,0-0.4l-1-1.1c-0.2-0.2-0.2-0.6-0.1-0.8l0.9-1.3l0-0.4c0,0,0-0.3-0.2-0.5l-1.1-0.9  c0,0-0.5-0.4-1.1-0.4l-1.9,0l-0.9,0.5c0,0-0.9,0.5-0.2,1.3l4.3,4.8c0,0,0.2,0.2,0.4,0L78.8,67.7z" id="coll" />
  <path class="st0" d="M105.8,35.7l2.5-5.2c0,0,0.4-0.9-0.5-0.5l-4.6,2c0,0-0.9,0.4-0.5,1.4l1.5,3.5c0,0,0.2,0.6,0.6,0.1L105.8,35.7z" id="verdun" />
  <path class="st0" d="M109.1,24.2l6.3-6.8c0,0,0.7-0.7-0.2-0.2l-15.7,8.9c0,0-0.9,0.5-0.3,1.4l1.9,3.1c0,0,0.5,0.9,1.5,0.4l5.9-2.7  c0,0,0.9-0.4,0.7-1.3l-0.3-2.2C108.9,24.6,108.9,24.4,109.1,24.2" id="roquetes" />
  <path class="st0" d="M118.4,10.2l-0.3-8.8c0,0,0-1-1.1-1.1L111.6,0c0,0-0.6,0-0.6,0.6l0.1,1.9c0,0,0.1,1,0.5,1.9l1.6,3.2  c0,0,0.4,0.9,1.2,1.5l5,3.9l0.2-0.2c0,0,0.2-0.2-0.3-1l-0.9-1.4C118.4,10.5,118.4,10.3,118.4,10.2" id="vallbona" />
  <path class="st0" d="M111.3,9c0,0,0.9-0.4,0.5-1.3l-1.1-2.4c0,0-0.4-0.9-1.4-0.7l-4.7,1.2c0,0-1,0.3-1.8,0.9l-3.2,2.7  c0,0-0.8,0.7,0.2,0.9l4.3,1.1c0,0,1,0.3,1.9-0.2L111.3,9z" id="ciutat-meridiana" />
  <path class="st0" d="M94.7,62.8c0,0-0.8,0.7-0.1,1.4l1.5,1.7c0.3,0.3,0.2,0.7-0.1,1L95,68l0.5,0.6c0,0,0.5,0.6,1.2,1.3l4.7,4.6  c0,0,0.7,0.7,1.5,0l4.4-3.9c0,0,0.8-0.7,0.9-1.7l0.5-3.2c0,0,0.2-1-0.4-1.8l-3.4-5l-0.6-0.6c0,0-0.6-0.6-1.3,0.1l-3.6,3.2  c-0.3,0.3-0.7,0.2-1-0.1L98,60.9c0,0-0.5-0.5-1.2,0.1L94.7,62.8z"
    id="guinardo" />
  <path class="st0" d="M98.1,58.9l0.5,0.5c0,0,0.5,0.5,1.2-0.1l2.4-2.2c0,0,0.5-0.4-0.1-0.7l-1.3-0.7l-7.5-2.1c0,0-1-0.3-1.9,0.2  l-3.3,1.9c0,0-0.8,0.5-0.6,1.4l0.5,1.8c0.1,0.2,0,0.5-0.2,0.7l-1.2,1.1l0.1,0.1c0,0,0.1,0.1,1.1-0.2l2.3-0.6c0.2-0.1,0.5,0,0.7,0.2  l1.6,1.7c0,0,0.7,0.8,1.4,0.1l3.3-3C97.4,58.6,97.8,58.6,98.1,58.9"
    id="font-fargues" />
  <path class="st0" d="M78.2,54.5L78.2,54.5L78.2,54.5c0,0,0,0.1,0.9-0.4l4.5-2.6c0,0,0.8-0.5,0.2-1.2l-1.3-1.4c0,0-0.2-0.2-0.5-0.1  l-1.3,0.7c0,0-0.9,0.5-1.2,1.5L78.2,54.5z" id="clota" />
  <path class="st0" d="M97.4,43.5c0,0,0.7-0.5,0.8-0.8c0-0.3-0.3-0.5-0.8-0.9c-0.1-0.1-0.2-0.1-0.3-0.1l-3-0.4c0,0-0.3,0-0.3,0.2  l0,0.8c0,0-0.1,0.3,0.4,0.4C94.2,42.7,97.2,44,97.4,43.5z" id="can-peguera" />
  <path class="st0" d="M101.8,49.2c0,0,1,0.1,0.6-0.9l-1.4-3.5c-0.1-0.3-0.4-0.6-0.7-0.7c-0.4-0.2-1-0.4-1.2-0.4  c-0.2,0-1.3,1.6-1.6,1.3L95,44.2c0,0-1.4-0.8-1.8-0.2l-0.7,2.8c-0.1,0.3,0,0.5,0.2,0.7c0.5,0.4,1.3,1.2,2,1.2L101.8,49.2z"
    id="turo-peira" />
  <path class="st0" d="M92.9,35.7c0,0-1,0.3-0.6,1.3l1,2.6c0,0,0.4,1,1.4,0.9l3.1,0.1c0.2,0,0.4,0.1,0.5,0.2c0.1,0.1,1.2,1.5,1.2,1.5  c0.6,0.6,1.6,0.6,2-0.1c0,0,0,0,0,0l1.5-2.4c0,0,0.5-0.9,0.1-1.8l-1.6-4c0,0-0.4-0.9-1.3-0.6L92.9,35.7z"
    id="guineueta" />
  <path class="st0" d="M45.4,102.8l-3-3.4c-0.3-0.3-0.2-0.7,0.1-1L43,98c0,0,0.5-0.5-0.3-1l-13.5-9c0,0-0.8-0.6-1.3,0.3l-4.2,7.5  c0,0-0.5,0.9-0.3,1.9l2.5,13.4c0,0,0.2,1,1.2,0.7l23.1-6.5c0,0,1-0.3,1.5-1.1l1.6-2.6c0,0,0.5-0.9-0.4-0.6l-6.6,1.9  C45.9,103.1,45.6,103,45.4,102.8"
    id="pedralbes" />
  <path class="st0" d="M33.1,74.5c0,0-0.8,0.7-0.1,1.4l2.4,2.7c0.2,0.2,0.2,0.5,0.1,0.7l-1,2.2c0,0.1-0.1,0.2-0.2,0.2l-4.4,4  c0,0-0.8,0.7,0.1,1.2l14.9,10c0.2,0.1,0.3,0.3,0.3,0.5c0,0.2-0.1,0.4-0.2,0.6l-0.6,0.6c0,0-0.5,0.4,0,0.9l1.2,1.3  c0,0,0.7,0.8,1.7,0.5l5.9-1.7c0,0,1-0.3,0.3-1l-2.9-3.2c-0.3-0.3-0.2-0.7,0.1-1l0.7-0.7c0,0,0.7-0.7,0.1-1.4L48,88.6  c-0.1-0.1-0.2-0.3-0.2-0.5c0-0.2,0.1-0.4,0.3-0.5l1.3-0.9c0,0,0.8-0.6,0.4-1.5l-2-4.7c0-0.1-0.1-0.2-0.1-0.3L48,76  c0,0,0.1-1-0.6-1.8l-2.4-2.7c0,0-0.7-0.8-1.7-0.5l-2.5,0.7c-0.2,0-0.3,0-0.5,0l-1.9-0.8c0,0-0.9-0.4-1.7,0.3L33.1,74.5z"
    id="sarria" />
  <path d="m 0.4,43.7 c 0,0 -0.8,0.7 -0.1,1.4 l 9.1,10.1 c 0.3,0.3 0.2,0.7 -0.1,1 l -6.9,6.2 c 0,0 -0.8,0.7 -0.1,1.4 l 8.1,9 c 0,0 0.7,0.8 1.7,0.8 l 11.6,0.8 c 0.2,0 0.3,0.1 0.5,0.2 l 1.6,1.8 c 0.1,0.1 0.1,0.2 0.1,0.3 l 2.3,7.6 c 0,0 0.3,1 1,0.3 l 4.2,-3.7 0.4,-0.8 c 0,0 0.4,-0.8 -0.3,-1.6 l -2.6,-2.9 c -0.3,-0.3 -0.2,-0.7 0.1,-1 l 6,-5.4 C 37.2,69 37.5,69 37.7,69.1 l 2.2,1 c 0,0 0.9,0.4 1.8,0.1 l 1.6,-0.5 c 0,0 1,-0.3 1.7,-1 l 3.1,-2.8 c 0.3,-0.3 0.7,-0.2 1,0.1 l 1.6,1.7 c 0,0 0.7,0.8 1.4,0.1 l 1.7,-1.5 c 0,0 0.8,-0.7 -0.1,-1.2 L 48.3,61.7 C 48.1,61.6 48,61.4 48,61.1 l -0.2,-5.6 c 0,0 0,-1 -1,-1.3 L 29.8,50 c 0,0 -0.1,0 -0.1,0 L 5.9,40 c 0,0 -0.9,-0.4 -1.7,0.3 z"
    id="vallvidrera-tibidado-planes" title="Vallvidrera,Tibidabo i les Planes" style="fill:#d9d9d9" inkscape:connector-curvature="0" class="st0" />
  <path class="st0" d="M122,71.2c0,0-0.4,1,0.3,1.7l2.6,2.9c0,0,0.7,0.8,1.4,0.1l6.1-5.5c0,0,0.8-0.7,0.1-1.4l-4.6-5.1  c0,0-0.2-0.2-0.5-0.3l-1.3-0.3c0,0-1-0.2-1.3,0.7L122,71.2z" id="sant-marti-provencals" />
  <path class="st0" d="M139,77.7c0,0,0.8-0.7,0.1-1.4l-3.3-3.7c-0.2-0.2-0.2-0.6-0.1-0.8l2.5-3.6l-0.3-0.3c0,0-0.3-0.3-1,0.4  l-16.2,14.6c0,0-0.2,0.2,0,0.4l0.9,1c0,0,0.7,0.8,1.6,0.4l11.7-3.9c0,0,1-0.3,1.7-1L139,77.7z" id="provencals-poblenou" />
  <path class="st0" d="M134.5,82.4c0,0-1,0.3-0.3,1.1l4.7,5.2c0.3,0.3,0.2,0.7-0.1,1l-2.2,2c0,0-0.7,0.6-0.1,1.3l1.4,1.6  c0,0,0.4,0.5,0.9,0l1-0.9c0.3-0.3,0.7-0.2,1,0.1l1.8,2l0.6-0.6c0,0,0.6-0.6,0-1.3l-1.2-1.3c-0.3-0.3-0.2-0.7,0.1-1l2-1.8  c0.3-0.3,0.7-0.2,1,0.1l1,1.1l0.9-0.8c0,0,0.2-0.2,0-0.4l-0.8-0.8c-0.3-0.3-0.2-0.7,0.1-1l1.9-1.7c0,0,0.2-0.2,0-0.4l-1-1.1  c-0.2-0.2-0.2-0.4-0.1-0.7l1.4-3.9l-0.6-0.6c0,0-0.6-0.6-1.5-0.3l-3.2,1c-0.3,0.1-0.5,0-0.7-0.2l-1.1-1.2c0,0-0.7-0.8-1.4-0.1  l-3.2,2.9c-0.1,0.1-0.2,0.1-0.2,0.1L134.5,82.4z"
    id="diagonal-front-maritim" />
  <path class="st0" d="M139.2,64.3c0,0,0.8-0.7,0.1-1.4l-4.3-4.8c-0.3-0.3-0.2-0.7,0.1-1l0.5-0.5c0,0,0.5-0.5-0.4-1l-5.3-2.9  c0,0-0.9-0.5-1.5,0.4l-1.4,2.1c0,0-0.6,0.8-0.8,1.8l-0.7,3.7c0,0-0.2,0.9,0.7,1.2l1.8,0.4c0.1,0,0.3,0.1,0.3,0.2l5,5.5  c0,0,0.7,0.8,1.4,0.1L139.2,64.3z"
    id="verneda-pau" />
  <path class="st0" d="M138.9,66.4c0,0-0.2,0.2,0,0.4l0.7,0.8c0.2,0.2,0.2,0.6,0.1,0.8l-1.9,2.8c0,0-0.6,0.8,0.1,1.6l4.6,5.1  c0,0,0.7,0.8,1.7,0.5l3.2-1c0.3-0.1,0.5,0,0.7,0.2l1.7,1.9c0.2,0.2,0.2,0.4,0.1,0.7l-1.2,3.3c0,0-0.2,0.6,0.2,1.1l1,1.1  c0,0,0.4,0.5,0.9,0l1.2-1.1c0.2-0.2,0.5-0.2,0.8-0.1l1,0.6c0,0,0.9,0.5,1.4-0.4l1.6-2.5c0,0,0.5-0.9-0.3-1.4l-6.7-4.6  c-0.2-0.1-0.3-0.3-0.3-0.5c0-0.2,0.1-0.4,0.2-0.5l0.2-0.2c0,0,0.2-0.2-0.5-0.9l-7.8-8.7c0,0-0.6-0.7-1.3-0.1L138.9,66.4z"
    id="besos-maresme" />
  <path class="st0" d="M79.7,56.6L79.7,56.6L79.5,56c0,0-0.1-0.6-1-0.1l-2.9,1.8c-0.1,0.1-0.3,0.1-0.5,0.1l-3.9-0.5c0,0-1-0.1-1.6,0.7  l-1.7,2.3l0.7-0.7c0.3-0.3,0.7-0.2,1,0.1l1.5,1.7c0,0,0.4,0.5,1,0.1l1.6-1c0.1-0.1,0.2-0.1,0.4-0.1l1.6,0c0,0,1,0,1.6-0.8L79.7,56.6  z"
    id="teixonera" />
  <path class="st0" d="M80.5,48c0,0,0.9-0.5,0.3-1.3l-2.8-4c0,0-0.6-0.8-1,0.1l-5.7,12.2c0,0-0.4,0.9,0.6,1.1l2.5,0.3  c0,0,0.6,0.1,1.2-0.2l1.4-0.9l-0.2-0.6c-0.1-0.1,0-0.3,0-0.5l1.9-5c0.1-0.1,0.2-0.3,0.3-0.3L80.5,48z" id="vall-dhebron" />
  <path class="st0" d="M62.1,30.5c0,0-0.6-0.8-1,0.1l-5.6,13.8c0,0-0.4,0.9,0.6,0.9l5.7,0c0.2,0,0.4,0.1,0.5,0.3l6.8,8.8  c0,0,0.6,0.8,1.1-0.1L76,41.7c0,0,0.4-0.9-0.5-1.2l-7.9-2.7c-0.1,0-0.2-0.1-0.3-0.2L62.1,30.5z" id="montbau" />
  <path class="st0" d="M68.5,57.2c0,0,0.6-0.8,0-1.6l-6.3-8.2c0,0-0.6-0.8-1.6-0.8l-5,0c0,0-1,0-1.6,0.8l-4.3,5.9c0,0-0.6,0.8-0.6,1.8  l0.1,4.5c0,0,0,1,0.9,1.6l4.6,2.8c0,0,0.9,0.5,1.6-0.1l7.8-7c0.3-0.3,0.7-0.2,1,0.1l1.3,1.5c0,0,0.7,0.8,1.3-0.1L68.5,57.2z"
    id="genis-agudells" />
  <path class="st0" d="M81.6,76.9c0,0,0.4,0.5,1,0.2l1.5-0.6l3.5-2.3c0,0,0.8-0.6,0.2-1.3l-3-3.4c0,0-0.4-0.5-0.9,0l-1.1,1  c-0.3,0.3-0.7,0.2-1-0.1l-1.8-2l-0.8,0.7c0,0-0.8,0.7-0.7,1.7l0.2,2.9c0,0.2-0.1,0.4-0.2,0.5l-0.6,0.5c0,0-0.5,0.4-0.1,0.9l1.1,1.3  c0,0,0.2,0.2,0.4,0l0.8-0.8c0.3-0.3,0.7-0.2,1,0.1L81.6,76.9z"
    id="salut" />
  <path class="st0" d="M94.2,69.6c0,0,0.3-0.2,0-0.4l-0.8-0.8c-0.3-0.3-0.2-0.7,0.1-1l0.9-0.8c0,0,0.2-0.2,0-0.4l-1-1.1  c0,0-0.7-0.8-1.6-0.3l-5.7,3c0,0-0.9,0.5-0.2,1.2l2.8,3.1c0,0,0.7,0.8,1.5,0.2L94.2,69.6z" id="can-baro" />
  <path class="st0" d="M91.8,75.7c0,0,0.6,0.8,1.3,1.5l2.3,2.6c0,0,0.7,0.8,1.4,0.1l3.5-3.2c0,0,0.8-0.7,0-1.4l-4.3-4.2  c0,0-0.7-0.7-1.6-0.1l-3.4,2.3c0,0-0.8,0.6-0.2,1.4L91.8,75.7z" id="baix-guinardo" />
  <path class="st0" d="M86.2,76.7c0,0-0.8,0.6-0.2,1.3l5,5.6c0.3,0.3,0.2,0.7-0.1,1l-1.4,1.3c0,0-0.7,0.6-0.1,1.3l1.2,1.4  c0,0,0.4,0.5,0.9,0l1-0.9c0.3-0.3,0.7-0.2,1,0.1l0.5,0.6c0,0,0.5,0.6,1.3-0.1l2.4-2.2c0,0,0.8-0.7,0.1-1.4l-1.6-1.8  c0,0-0.7-0.8-1.4-1.5l-3.7-4.1c0,0,0,0,0,0l-1.3-1.7c0,0-0.6-0.8-1.5-0.2L86.2,76.7z"
    id="camp-gracia-nova" />
  <path class="st0" d="M89.4,90.6c0,0,0.8-0.7,0.1-1.4l-2.1-2.3c-0.3-0.3-0.2-0.7,0.1-1l1.4-1.2c0,0,0.8-0.7,0.1-1.4l-4.4-4.9  c0,0-0.4-0.5-1-0.2L82,78.8c-0.3,0.1-0.6,0-0.7-0.2l-0.4-0.4c0,0-0.4-0.4-1.1,0.3l-2.3,2.1c0,0-0.8,0.7-0.7,1.7l0.1,2.7  c0,0,0,1,0.7,1.8l1.6,1.8c0.2,0.3,0.2,0.7,0,1l-0.3,0.3c0,0-0.3,0.3,0.1,1.2l2,4.4c0,0,0.4,0.9,1.3,0.4l3.8-2.1L89.4,90.6z"
    id="vila-gracia" />
  <path class="st0" d="M105.3,104.3c0,0,0.8-0.7,0.1-1.4l-3.5-3.9c-0.3-0.3-0.2-0.7,0.1-1l1.2-1.1c0,0,0.8-0.7,0.1-1.4l-5.6-6.2  c0,0-0.6-0.7-1.3-0.1L95,90.3c-0.3,0.3-0.7,0.2-1-0.1l-0.5-0.6c0,0-0.5-0.6-1.3,0.1l-5.4,4.9c0,0-0.1,0.1-0.1,0.1l-3.7,2  c0,0-0.9,0.5-0.2,1.2l8.3,9.2c0,0,0.7,0.8,1.6,1.2l2.2,1.2c0,0,0.9,0.5,1.5-0.3l2-2.7c0.1-0.2,0.4-0.3,0.6-0.3l2.6,0.2  c0,0,1,0.1,1.8-0.6L105.3,104.3z"
    id="dreta-eixample" />
  <path class="st0" d="M83.4,113.5c0,0,0.7,0.8,1.4,0.1l4.8-4.3c0,0,0.8-0.7,0.1-1.4l-8.2-9.1c0,0-0.7-0.8-1.7-0.5l-9.1,2.6  c0,0-0.3,0.1-0.4,0.4l-0.2,1.1c0,0-0.2,1,0.8,1.1l3.3,0.3c0.2,0,0.3,0.1,0.4,0.2L83.4,113.5z" id="antiga-eixample" />
  <path class="st0" d="M79.4,96.9c0,0,1-0.3,0.5-1.2l-2.3-4.5c0,0-0.4-0.8-1.4-1l-2-0.4c-0.1,0-0.2-0.1-0.3-0.1l-6.2-4.5  c0,0-0.8-0.6-1.5,0.1l-6.9,7c0,0-0.7,0.7-0.3,1.7l2.7,6.5l1.1,0.4c0,0,1,0.3,1.9,0.1l4.8-1.4L79.4,96.9z" id="gervasi-galvany" />
  <path class="st0" d="M50.4,87.7c0,0-0.8,0.6-0.2,1.3l3.2,3.6c0.1,0.1,0.2,0.3,0.2,0.5c0,0.2-0.1,0.3-0.2,0.5l-0.7,0.7  c0,0-0.7,0.7-0.1,1.4l2.3,2.6c0,0,0.7,0.8,1.7,1l2.5,0.6c0,0,1,0.2,0.6-0.7l-2.5-5.9c-0.1-0.3,0-0.5,0.1-0.7l1.3-1.4  c0,0,0.7-0.7,0.2-1.6L56.3,85c0,0-0.5-0.9-1.4-0.3L50.4,87.7z"
    id="tres-torres" />
  <path class="st0" d="M68.1,115.8c0,0-0.1,1,0.5,1.8l4.6,5.1c0,0,0.7,0.8,1.4,0.1l7.7-6.9c0,0,0.8-0.7,0.1-1.4l-7.8-8.6  c0,0-0.7-0.8-1.7-0.8l-2.2-0.2c0,0-1-0.1-1.2,0.9L68.1,115.8z" id="nova-eixample" />
  <path class="st0" d="M68.4,119.4c0,0-0.7-0.8-0.8,0.3l-1.1,9.5c0,0-0.1,1,0.6,0.3l4.9-4.4c0,0,0.8-0.7,0.1-1.4L68.4,119.4z" id="hostafrancs" />
  <path class="st0" d="M66.6,110.2c0,0,0.9-0.5,1.1-1.5l1.1-6.5c0,0,0.2-1-0.8-0.7l-4,1.1c-0.1,0-0.3,0-0.4,0l-2.6-0.9l-4.5-1.1  c0,0-1-0.2-1.5,0.6l-2.2,3.6c0,0-0.5,0.9-0.4,1.9l1.4,8.6c0,0,0.2,1,1.1,0.6L66.6,110.2z" id="les-corts" />
  <path class="st0" d="M51.9,117.7c0,0,0.8-0.6,0.7-1.6c0,0,0.2,1-1.4-8.6c0,0-0.2-1-1.1-0.7c-6.7,1.9-19.5,5.5-22.2,6.3  c0,0-1,0.3-0.3,1l5.2,5.5c0,0,0.7,0.7,1.7,0.8L41,121c0,0,0.6,0.1,1.1-0.4l1.2-1.1c0.3-0.3,0.7-0.2,1,0.1l1.3,1.4  c0,0,0.7,0.8,1.5,0.2L51.9,117.7z"
    id="maternitat" />
  <path class="st0" d="M64.2,132.2c0,0,0.8-0.7,0.8-1.7l0.3-3.1c0,0,0.1-1-0.9-0.8l-8.2,2.2l-0.9,0.8c0,0-0.8,0.7-0.4,1.6l2.4,5.8  c0,0,0.4,0.9,1.1,0.3L64.2,132.2z" id="bordeta" />
  <path class="st0" d="M64.6,125.2c0,0,1-0.3,1.1-1.3c0,0-0.1,1,1.5-11.5c0,0,0.1-1-0.7-0.6c-0.8,0.4-4.3,2.1-11.3,5.6  c0,0-0.9,0.4-0.7,1.4l1.7,7.6c0,0,0.2,1,1.2,0.7L64.6,125.2z" id="sants" />
  <path class="st0" d="M54.5,128.6c0,0,0.7-0.6,0.5-1.6l-1.7-7.4c0,0-0.2-1-1.1-0.4l-4.2,3c0,0-0.8,0.6-0.1,1.3l5.6,5.5  c0,0,0.2,0.2,0.5,0L54.5,128.6z" id="sants-badal" />
  <path class="st0" d="M97.2,25.8c0,0,0.1-0.1,0.1-0.1l20.1-11.3c0,0,0.9-0.5,0.1-1.1l-3.7-2.9c0,0-0.8-0.6-1.7-0.2l-6.7,3  c-0.1,0.1-0.3,0.1-0.4,0l-6.4-1.6c0,0-1-0.3-1.6,0.5l-1.8,2.3c0,0-0.6,0.8-0.4,1.8l1.2,4.7c0.1,0.2,0,0.5-0.2,0.7l-2.3,2.1  c0,0-0.8,0.7-0.1,1.4l1.6,1.8c0,0,0.4,0.5,0.9,0L97.2,25.8z"
    id="torre-baro" />
  <path class="st0" d="M63,27.7c0,0-0.8,0.7-0.2,1.5l4.8,6.6c0,0,0.6,0.8,1.6,1.2l8.4,2.9c0.1,0,0.3,0.1,0.3,0.3l4.4,6.4  c0,0,0.6,0.8,1.3,1.6l2.3,2.6c0.1,0.1,0.1,0.2,0.2,0.3l0.8,2.9c0,0,0.3,1,1.1,0.5l3.2-1.8c0,0,0.5-0.3,0.8-0.9l0.5-1.4  c0,0,0.2-0.6-0.2-1.1l-1.1-1.2C91,47.7,91,47.5,91,47.3l1.2-5c0,0,0.2-1-0.1-1.9l-1.3-3.4c0,0-0.4-1-1-1.7L84,28.8  c-0.3-0.3-0.2-0.7,0-1l5.5-5c0,0,0.5-0.4,0-0.9l-1.1-1.2c0,0-0.7-0.8-1.4-0.1l-6,5.4c-0.1,0.1-0.3,0.2-0.5,0.2l-15-0.1  c0,0-1,0-1.8,0.7L63,27.7z"
    id="horta" />
  <path class="st0" d="M94.9,28.8l-3.6-4c-0.3-0.3-0.2-0.7,0-1l0.6-0.5l-0.3-0.1c0,0-0.3-0.1-1.1,0.6l-4.2,3.8c0,0-0.8,0.7-0.1,1.4  l4.5,5c0,0,0.7,0.8,1.6,0.4l7.2-2.4c0,0,1-0.3,0.4-1.2l-2-3c0,0-0.3-0.5-0.8-0.1l-1.2,1.1C95.6,29.1,95.1,29.1,94.9,28.8"
    id="canyelles" />
  <path class="st0" d="M113.7,60.3c0,0-0.1,1,0.6,1.8l5.9,6.5c0.1,0.1,0.2,0.2,0.2,0.4l0.2,2l0,0c0,0,0,0,0.4-0.9L124,62l0.9-4.8  c0,0,0.2-1-0.8-1.3l-6.8-2.4c0,0-0.3-0.1-0.6-0.1l-1.6,0c0,0-1,0-1.1,1L113.7,60.3z" id="sagrera" />
  <path class="st0" d="M111.5,61.9c0,0,0.8-0.7,0.8-1.7l0.4-5.7c0,0,0.1-1-0.9-0.8l-4,0.7c0,0-0.6,0.1-1.1,0.5l-1.2,1.1  c0,0-0.8,0.7-0.2,1.5l3.8,5.2c0,0,0.6,0.8,1.4,0.1L111.5,61.9z" id="congres-indians" />
  <path class="st0" d="M106.8,53.2l5.5-1l-0.4-0.5c0,0-0.4-0.5-1.5-0.6l-16.5-1.1l-0.4,1.1c0,0-0.3,1,0.7,1.2l7.1,2c0,0,0.1,0,0.1,0.1  l1.4,0.8c0,0,0.9,0.5,1.6-0.2l1.9-1.7C106.5,53.3,106.6,53.2,106.8,53.2" id="vilapicina-llobeta" />
  <path class="st0" d="M103.9,48.4c0,0,0.4,0.9,1.4,1l4.9,0.3c0,0,1,0.1,1.3-0.9l2.6-9.1c0,0,0.3-1-0.7-0.9l-7.8,0.6  c0,0-1,0.1-1.5,0.9l-1.5,2.4c0,0-0.5,0.9-0.2,1.8L103.9,48.4z" id="porta" />
  <path class="st0" d="M122.9,43.8l3.5-14.2c0,0,0.2-1-0.8-1l-5.9,0.1c0,0-1,0-1.3,1l-5.9,20.7l0.7,0.9c0,0,0.7,0.8,1.7,0.8l2.3,0  c0.1,0,0.1,0,0.2,0l6.8,2.4c0,0,1,0.3,1-0.7l0.1-3.1c0,0,0-1-0.4-2l-1.9-4.5C122.9,44.1,122.9,43.9,122.9,43.8"
    id="sant-andreu" />
  <path style="fill:#d9d9d9" inkscape:connector-curvature="0" id="bon-pastor" d="M 139.7,46.3 138.3,38 c 0,0 -0.2,-1 -0.5,-1.5 l -2.1,-3.4 c -0.2,-0.4 -0.7,-0.4 -1,-0.1 l -1,1 c -0.2,0.1 -0.3,2.3 -0.4,2.3 -0.6,0.6 -2.7,1.6 -3.7,2 -0.4,0.1 -0.8,0.2 -1.2,0.1 -0.8,-0.1 -2,-0.2 -2.1,-0.3 -0.5,-0.1 -0.5,0.3 -0.5,0.3 l -1.2,4.4 c 0,0 -0.2,1 0.2,1.9 l 1.9,4.4 c 0,0.1 0,0.2 0.1,0.3 v 3 c 0,0 0,0.9 0.5,0.2 l 1.1,-1.7 c 0,0 0.1,-0.1 0.1,-0.1 0.2,-0.2 0.5,-0.2 0.8,-0.1 l 6.5,3.5 c 0,0 0.9,0.5 0.8,-0.5 l -0.3,-5.1 c 0,-0.3 0.2,-0.6 0.5,-0.7 l 2.2,-0.5 c -0.1,0.1 0.9,-0.1 0.7,-1.1 z"
    class="st0" />
  <path style="fill:#d9d9d9" inkscape:connector-curvature="0" id="path317" d="M 134.3,30.7" class="st0" />
  <path style="fill:#d9d9d9" inkscape:connector-curvature="0" id="path319" d="m 130.1,37 c 0,0 0,0 0,0 0,0 0,0 0,0 z" class="st0" />
  <g id="g325">
    <polygon style="fill:#d9d9d9" id="polygon321" points="" class="st0" />
    <path style="fill:#d9d9d9" inkscape:connector-curvature="0" id="baro-viver" d="m 134,30.3 -1.9,-2.8 c 0,0 -0.5,-0.8 -1.4,-0.4 l -1.7,0.7 c 0,0 -0.9,0.4 -1.2,1.4 l -1.7,6.9 c 0,0 0,0.1 0,0.1 0,0.2 0,0.5 0.5,0.5 0,0 2,0.3 3,-0.1 0.1,-0.1 1.1,-0.5 1.9,-1 0.3,-0.1 0.5,-0.4 0.5,-0.7 0,-0.6 0.1,-1.7 0.3,-1.8 l 1.5,-1.5 c 0,0.2 0.7,-0.5 0.2,-1.3 z"
      class="st0" />
  </g>
  <path style="fill:#d9d9d9" inkscape:connector-curvature="0" id="path327" d="m 130,37 c -0.2,0.1 -0.1,0 0,0 z" class="st0" />
  <path class="st0" d="M106.3,37.3c0,0-0.6,0.8,0.4,0.7l7.1-0.5c0,0,1-0.1,1.3-1.1l1.9-6.7c0,0,0.3-1-0.7-0.9l-4.7,0.1  c0,0-1,0-1.5,0.9l-3.1,6.5c0,0,0,0.1-0.1,0.1L106.3,37.3z" id="prosperitat" />
  <path class="st0" d="M116.5,27.4c0,0,1,0,1.1-1l0.9-9.5c0,0,0.1-1-0.6-0.3l-7.5,8c0,0-0.2,0.2-0.2,0.5l0.2,1.4c0,0,0.1,1,1.2,1  L116.5,27.4z" id="trinitat-nova" />
  <path class="st0" d="M129.7,26.1c0,0,0.9-0.4,0.3-1.2l-9.2-11.2l-0.3,0.3c0,0-0.3,0.3-0.4,1.3l-1.1,11c0,0-0.1,1,0.9,1l6.4-0.1  c0,0,1,0,1.9-0.4L129.7,26.1z" id="trinitat-vella" />
  <path class="st0" d="M122.4,108.4c0.3-0.3,0.7-0.2,1,0.1l1,1.2c0,0,0.2,0.2,0.4,0l1-0.9c0.3-0.3,0.7-0.2,1,0.1l4.2,4.7  c0.3,0.3,0.2,0.7-0.1,1l-2.1,1.9l0.6,0.7c0,0,0.6,0.7,1.4,0l2.6-2.4c0,0,0.8-0.7,0.1-1.4l-5.2-5.8c-0.3-0.3-0.2-0.7,0.1-1l0.8-0.7  c0.1-0.1,0.7-0.7,0.7-0.7s0.7-0.6,0-1.3l-1.8-2.1l-0.2,0.2c-0.3,0.3-0.7,0.2-1-0.1l-2.6-2.9c0,0-0.7-0.8-1.4-0.1l-6.2,5.5  c0,0-0.8,0.7-0.1,1.4l3.2,3.6c0,0,0.6,0.7,1.3,0.1L122.4,108.4z"
    id="vila-olimpica-poblenou" />
  <path class="st0" d="M124.3,85.8c0,0-1,0.3-0.3,1.1l1.8,2c0.2,0.2,0.2,0.6,0.1,0.8l-2.9,4.3c0,0-0.6,0.8,0.1,1.6l4.4,4.9l0.2-0.2  c0.3-0.3,0.7-0.2,1,0.1l4.6,5.1l0.9-0.8c0,0,0.5-0.4,0-0.9l-1-1.1c-0.3-0.3-0.2-0.7,0.1-1l2.6-2.3c0.3-0.3,0.7-0.2,1,0.1l1,1.1  c0,0,0.2,0.2,0.4,0l0.7-0.7c0,0,0.2-0.2,0-0.4l-0.9-1c-0.3-0.3-0.2-0.7,0.1-1l0.2-0.2c0,0,0.2-0.2-0.5-0.9l-3.3-3.7  c-0.3-0.3-0.2-0.7,0.1-1l2.2-2c0,0,0.8-0.7,0.1-1.4l-3.9-4.4c0,0-0.7-0.8-1.6-0.4L124.3,85.8z"
    id="poblenou" />
							<g id="g347">
      <path class="st0" d="M61.7,160.2c0.3,0,10.6-5.1,10.6-5.1l-2.5-2.8c0,0-0.2-0.2-0.5-0.3l-1.4-0.2c-0.2,0-0.3-0.1-0.4-0.2l-0.9-1   c0,0-0.7-0.8-1.6-0.3l-6.4,3.2c0,0-0.9,0.5-0.5,1.4l1.2,2.3C60.2,158.4,61.3,159.9,61.7,160.2z   M110,143.3l-8-6.6c-0.2-0.1-0.3-0.4-0.2-0.6l0.5-5.4c0,0,0.1-1-0.5-0.2l-9.3,12.8c0,0-0.1,0.1-0.1,0.1   l-16.3,14.6c-0.3,0.3-0.7,0.2-1-0.1l-1.8-2l-10.4,5.1c-0.2,0.1-0.6,0.3-1.3,0.3c-0.2,0-0.6,0-1.6-1.2c-0.3-0.3-0.7-0.4-1.1-0.3   l-34.1,14.3c0,0-0.9,0.4-0.3,1.2l10.5,13c0,0,0.6,0.8,1.6,1l34.4,7.4c0,0,1,0.2,1.4-0.7l3.1-7.6c0.1-0.3,0.4-0.4,0.6-0.4l3.8,0   c0,0,1,0,1.4-0.9l7.1-15.5c0,0,0.4-0.9-0.5-1.2l-3.8-1.2c0,0-1-0.3-1.6,0.5l-11.6,15.8c-0.2,0.3-0.6,0.4-0.9,0.2l-3.7-1.9   c-0.2-0.1-0.3-0.2-0.3-0.4c0-0.2,0-0.4,0.1-0.5l1.2-1.7c0,0,0.5-0.8-0.3-1.3l-1.6-1c-0.2-0.1-0.3-0.3-0.3-0.4c0-0.2,0-0.4,0.1-0.5   l1.8-2.8c0.1-0.2,0.4-0.3,0.7-0.3l3,0.4c0,0,1,0.1,1.1-0.9l0.9-10.2c0-0.3,0.3-0.6,0.6-0.6l2.6-0.2c0.2,0,0.4,0.1,0.5,0.2   c0.1,0.1,0.2,0.3,0.2,0.5l-0.1,1.8c0,0,0,1,0.8,0.5L83,163c0,0,0.8-0.5,0.3-1.4l-0.9-1.7c-0.1-0.3-0.1-0.6,0.1-0.8L86,156   c0.3-0.3,0.7-0.2,1,0.1l3.2,3.5c0,0,0.7,0.8,1.2-0.1l4.6-7.4c0,0,0.5-0.9-0.2-1.6l-2.3-2.4c-0.2-0.2-0.3-0.6-0.1-0.8l1.5-2.4   c0.1-0.2,0.3-0.3,0.4-0.3c0.2,0,0.4,0,0.5,0.1l3.5,2.4l0.5-0.8c0,0,0.5-0.8-0.3-1.4l-2.5-1.7c-0.2-0.1-0.3-0.3-0.3-0.4   c0-0.2,0-0.4,0.1-0.5l2.3-3.2c0.1-0.2,0.3-0.3,0.5-0.3c0.2,0,0.4,0,0.5,0.2l6.3,5.3c0.3,0.2,0.3,0.6,0.1,0.9l-9.3,15.4   c0,0-0.5,0.9-0.7,1.9l-4.2,26c0,0-0.2,1,0.2,2l0.9,2.4c0,0,0.1,0.3,0.4,0.2l1-0.4c0,0,0.9-0.4,0.7-1.4l-0.7-2.3c0-0.1,0-0.2,0-0.3   l4.2-26.3c0-0.1,0.1-0.2,0.1-0.3l10.9-17.2C110.2,144.8,110.8,143.9,110,143.3z"
        id="marina-prat" />
    </g>
</svg>