<svg xmlns="http://www.w3.org/2000/svg" xmlns:xlink="http://www.w3.org/1999/xlink" viewBox = "0 0 1247 1207" version = "1.1">
<g id="comarca" groupmode="layer" label="comarca">
<g stroke="#000" fill="rgb(228,228,228)" stroke-linejoin="round" stroke-width="1">
<g class="map_elem" id="c_1" label="Alt Camp">
<path d="M 532,718 L 533,721 L 526,731 L 528,735 L 536,735 L 531,738 L 529,737 L 528,739 L 529,741 L 531,742 L 533,752 L 530,754 L 527,763 L 531,762 L 541,756 L 551,761 L 547,769 L 541,773 L 538,772 L 534,775 L 523,774 L 500,789 L 509,798 L 505,802 L 499,805 L 512,808 L 514,815 L 502,814 L 500,816 L 499,820 L 506,820 L 511,824 L 512,826 L 506,827 L 503,831 L 487,829 L 486,825 L 483,824 L 479,830 L 480,832 L 474,832 L 477,836 L 480,835 L 481,838 L 476,843 L 475,840 L 471,841 L 463,832 L 460,831 L 454,834 L 453,832 L 449,834 L 447,838 L 442,837 L 440,839 L 444,843 L 446,850 L 437,848 L 436,841 L 431,842 L 425,835 L 423,838 L 420,833 L 417,838 L 414,838 L 409,835 L 407,833 L 410,830 L 404,826 L 401,820 L 396,821 L 395,819 L 389,821 L 387,816 L 383,817 L 370,815 L 372,812 L 372,802 L 375,797 L 371,796 L 367,790 L 375,786 L 375,789 L 390,792 L 390,795 L 398,797 L 416,790 L 422,793 L 424,786 L 430,783 L 434,778 L 437,764 L 440,763 L 441,759 L 446,759 L 448,750 L 458,743 L 460,739 L 465,738 L 471,728 L 474,739 L 479,737 L 484,739 L 494,729 L 502,735 L 509,728 L 516,727 L 521,723 L 521,718 L 524,719 L 528,714 L 532,718 " />
</g>
<g class="map_elem" id="c_2" label="Alt Empordà">
<path d="M 1158,342 L 1158,341 L 1158,342 " />
<path d="M 1143,402 L 1142,402 L 1143,402 " />
<path d="M 1152,407 L 1152,406 L 1152,407 " />
<path d="M 1152,285 L 1152,284 L 1152,285 " />
<path d="M 1160,294 L 1160,293 L 1160,294 " />
<path d="M 1209,306 L 1210,306 L 1209,306 " />
<path d="M 1196,300 L 1196,299 L 1196,300 " />
<path d="M 1196,335 L 1196,334 L 1196,335 " />
<path d="M 1175,346 L 1174,346 L 1175,346 " />
<path d="M 1187,296 L 1187,295 L 1187,296 " />
<path d="M 1152,285 L 1152,284 L 1152,285 " />
<path d="M 1179,291 L 1178,291 L 1179,291 " />
<path d="M 1208,307 L 1207,307 L 1208,307 " />
<path d="M 1174,347 L 1174,346 L 1174,347 " />
<path d="M 1152,265 L 1152,264 L 1152,265 " />
<path d="M 1159,290 L 1159,289 L 1159,290 " />
<path d="M 1156,289 L 1157,289 L 1156,289 " />
<path d="M 1196,329 L 1195,329 L 1196,329 " />
<path d="M 1160,294 L 1160,293 L 1160,294 " />
<path d="M 1149,269 L 1149,268 L 1149,269 " />
<path d="M 1172,291 L 1171,291 L 1172,291 " />
<path d="M 1160,292 L 1160,291 L 1160,292 " />
<path d="M 1176,345 L 1176,344 L 1176,345 " />
<path d="M 1153,285 L 1152,285 L 1153,285 " />
<path d="M 1180,296 L 1180,295 L 1180,296 " />
<path d="M 1160,291 L 1160,290 L 1160,291 " />
<path d="M 1209,306 L 1209,305 L 1209,306 " />
<path d="M 1163,345 L 1162,344 L 1163,344 L 1163,345 " />
<path d="M 1160,294 L 1160,293 L 1160,294 " />
<path d="M 1209,306 L 1210,306 L 1209,306 " />
<path d="M 1163,344 L 1163,345 L 1162,345 L 1162,344 L 1163,344 " />
<path d="M 1199,318 L 1199,317 L 1199,318 " />
<path d="M 1197,325 L 1197,324 L 1197,325 " />
<path d="M 1207,308 L 1208,308 L 1207,308 " />
<path d="M 1208,308 L 1207,308 L 1208,308 " />
<path d="M 1153,283 L 1153,282 L 1153,283 " />
<path d="M 1152,285 L 1152,284 L 1152,285 " />
<path d="M 1164,344 L 1165,344 L 1164,344 " />
<path d="M 1176,345 L 1176,344 L 1176,345 " />
<path d="M 1194,326 L 1195,327 L 1194,326 " />
<path d="M 1138,396 L 1137,396 L 1138,396 " />
<path d="M 1150,277 L 1150,278 L 1150,277 " />
<path d="M 1155,250 L 1154,250 L 1155,250 " />
<path d="M 1154,254 L 1155,254 L 1154,254 " />
<path d="M 1205,309 L 1206,309 L 1205,309 " />
<path d="M 1175,291 L 1174,291 L 1175,291 " />
<path d="M 1176,343 L 1175,343 L 1176,343 " />
<path d="M 1152,270 L 1151,270 L 1152,270 " />
<path d="M 1153,280 L 1152,280 L 1153,280 " />
<path d="M 1208,308 L 1208,309 L 1208,308 " />
<path d="M 1153,261 L 1153,260 L 1153,261 " />
<path d="M 1201,319 L 1200,318 L 1201,319 " />
<path d="M 1210,304 L 1210,305 L 1210,304 " />
<path d="M 1153,285 L 1152,285 L 1153,285 " />
<path d="M 1167,344 L 1167,345 L 1166,345 L 1167,344 " />
<path d="M 1199,325 L 1198,325 L 1199,325 " />
<path d="M 1201,319 L 1201,320 L 1200,320 L 1201,319 " />
<path d="M 1150,274 L 1150,275 L 1150,274 " />
<path d="M 1189,346 L 1188,346 L 1189,346 " />
<path d="M 1201,320 L 1201,321 L 1200,321 L 1201,320 " />
<path d="M 1165,343 L 1165,344 L 1164,344 L 1164,343 L 1165,343 " />
<path d="M 1181,296 L 1180,296 L 1181,296 " />
<path d="M 1205,319 L 1205,320 L 1205,319 " />
<path d="M 1213,305 L 1213,306 L 1213,305 " />
<path d="M 1153,265 L 1153,266 L 1153,265 " />
<path d="M 1196,299 L 1197,299 L 1196,299 " />
<path d="M 1204,301 L 1204,302 L 1203,302 L 1204,301 " />
<path d="M 1199,324 L 1199,325 L 1199,324 " />
<path d="M 1209,303 L 1209,304 L 1211,305 L 1209,305 L 1209,304 L 1208,304 L 1209,303 " />
<path d="M 1200,318 L 1201,319 L 1200,319 L 1200,320 L 1200,318 " />
<path d="M 1077,230 L 1080,234 L 1085,233 L 1088,230 L 1097,234 L 1104,230 L 1107,230 L 1109,238 L 1123,254 L 1128,254 L 1132,249 L 1136,247 L 1145,250 L 1156,249 L 1151,252 L 1154,254 L 1154,258 L 1149,263 L 1152,266 L 1150,268 L 1149,268 L 1148,269 L 1148,271 L 1150,272 L 1153,271 L 1153,272 L 1151,273 L 1152,274 L 1150,274 L 1149,276 L 1149,277 L 1150,278 L 1150,280 L 1152,279 L 1153,282 L 1153,283 L 1152,283 L 1152,284 L 1152,285 L 1152,286 L 1157,289 L 1159,289 L 1159,291 L 1161,290 L 1161,291 L 1160,293 L 1160,294 L 1164,298 L 1166,297 L 1166,292 L 1169,294 L 1171,291 L 1173,292 L 1176,290 L 1179,291 L 1179,294 L 1180,297 L 1180,298 L 1182,298 L 1183,301 L 1184,301 L 1184,298 L 1187,299 L 1188,297 L 1187,295 L 1190,295 L 1194,298 L 1193,299 L 1196,300 L 1197,303 L 1200,301 L 1202,303 L 1204,302 L 1206,305 L 1206,303 L 1210,306 L 1207,307 L 1208,308 L 1206,307 L 1206,309 L 1204,308 L 1205,310 L 1203,310 L 1201,312 L 1202,312 L 1202,313 L 1198,312 L 1197,314 L 1199,314 L 1197,316 L 1199,318 L 1197,319 L 1201,323 L 1198,324 L 1195,321 L 1193,322 L 1193,323 L 1195,325 L 1193,325 L 1197,332 L 1195,338 L 1185,339 L 1185,343 L 1189,343 L 1189,346 L 1183,344 L 1181,340 L 1179,339 L 1179,340 L 1179,341 L 1176,339 L 1176,345 L 1174,345 L 1172,349 L 1164,341 L 1159,342 L 1159,340 L 1157,340 L 1157,339 L 1158,336 L 1156,338 L 1158,336 L 1153,333 L 1141,341 L 1137,349 L 1133,364 L 1135,393 L 1138,400 L 1141,400 L 1142,401 L 1143,406 L 1147,405 L 1145,404 L 1147,403 L 1153,407 L 1154,406 L 1157,408 L 1156,410 L 1151,409 L 1148,412 L 1144,413 L 1141,414 L 1141,415 L 1140,415 L 1140,410 L 1132,412 L 1132,406 L 1128,405 L 1127,401 L 1125,403 L 1117,405 L 1109,409 L 1106,404 L 1098,400 L 1094,394 L 1091,397 L 1090,402 L 1083,406 L 1075,408 L 1065,406 L 1057,409 L 1055,403 L 1056,395 L 1051,389 L 1055,382 L 1053,375 L 1047,373 L 1048,367 L 1042,364 L 1037,374 L 1031,375 L 1029,373 L 1032,364 L 1027,365 L 1022,364 L 1019,365 L 1013,364 L 1010,357 L 1011,351 L 1008,346 L 1009,339 L 994,333 L 991,341 L 989,339 L 983,340 L 986,332 L 981,328 L 974,330 L 979,334 L 972,334 L 974,335 L 973,336 L 972,333 L 969,332 L 971,329 L 970,324 L 967,317 L 956,317 L 957,309 L 953,312 L 951,306 L 943,301 L 932,306 L 925,298 L 930,293 L 930,289 L 936,287 L 941,287 L 952,293 L 972,295 L 974,287 L 969,283 L 969,277 L 965,273 L 972,272 L 973,264 L 980,263 L 990,255 L 1002,253 L 1009,260 L 1011,260 L 1014,258 L 1019,257 L 1021,250 L 1022,251 L 1026,246 L 1029,247 L 1034,237 L 1042,239 L 1042,235 L 1045,233 L 1049,237 L 1062,239 L 1065,237 L 1067,230 L 1073,226 L 1077,230 " />
</g>
<g class="map_elem" id="c_3" label="Alt Penedès">
<path d="M 581,698 L 587,701 L 604,702 L 613,718 L 617,722 L 630,726 L 630,728 L 637,732 L 640,730 L 639,724 L 648,722 L 646,717 L 651,719 L 652,715 L 657,715 L 660,708 L 664,709 L 675,717 L 675,726 L 684,739 L 679,748 L 680,751 L 677,753 L 676,760 L 674,761 L 674,765 L 680,769 L 681,774 L 684,775 L 683,779 L 678,783 L 674,783 L 674,785 L 670,788 L 667,795 L 662,796 L 658,794 L 644,793 L 639,790 L 634,793 L 635,798 L 630,803 L 624,806 L 618,803 L 611,804 L 611,808 L 607,817 L 599,825 L 598,830 L 587,835 L 584,840 L 581,841 L 574,835 L 566,834 L 562,822 L 571,823 L 575,828 L 580,826 L 583,818 L 580,814 L 584,811 L 583,806 L 587,805 L 585,804 L 579,806 L 578,810 L 569,806 L 572,799 L 564,795 L 561,783 L 558,781 L 564,775 L 566,776 L 566,772 L 563,772 L 562,768 L 556,769 L 551,761 L 541,756 L 535,758 L 531,762 L 527,762 L 530,759 L 530,754 L 533,752 L 531,742 L 529,741 L 529,737 L 531,738 L 536,735 L 538,739 L 541,736 L 550,734 L 551,731 L 553,733 L 557,728 L 561,729 L 564,732 L 572,728 L 571,724 L 568,723 L 564,718 L 564,714 L 569,709 L 576,707 L 575,703 L 579,702 L 577,698 L 581,698 " />
<path d="M 586,798 L 588,798 L 589,797 L 584,798 L 586,798 " />
</g>
<g class="map_elem" id="c_4" label="Alt Urgell">
<path d="M 476,461 L 477,464 L 475,466 L 474,463 L 476,461 " />
<path d="M 529,192 L 535,207 L 526,214 L 519,215 L 517,220 L 522,221 L 525,224 L 525,230 L 527,232 L 525,234 L 526,241 L 530,243 L 550,247 L 564,246 L 565,241 L 568,238 L 567,235 L 571,233 L 574,237 L 581,240 L 583,250 L 591,259 L 599,263 L 602,270 L 601,279 L 603,279 L 604,281 L 600,288 L 603,294 L 600,319 L 614,323 L 615,330 L 612,333 L 595,337 L 591,341 L 584,354 L 586,360 L 579,360 L 563,355 L 554,358 L 554,364 L 552,365 L 551,368 L 524,387 L 518,379 L 516,379 L 506,383 L 499,381 L 491,384 L 495,389 L 493,393 L 489,394 L 488,396 L 480,400 L 478,410 L 482,419 L 488,421 L 491,419 L 492,432 L 490,434 L 493,436 L 490,438 L 491,442 L 489,446 L 492,457 L 483,461 L 471,460 L 472,463 L 466,470 L 465,477 L 450,486 L 455,470 L 453,465 L 455,457 L 446,446 L 448,438 L 445,433 L 448,430 L 447,425 L 445,425 L 446,424 L 440,422 L 441,417 L 437,418 L 433,412 L 428,414 L 427,412 L 426,414 L 421,415 L 419,404 L 422,397 L 421,395 L 418,395 L 417,389 L 420,386 L 419,381 L 424,381 L 429,370 L 420,362 L 423,357 L 423,350 L 418,347 L 413,341 L 413,338 L 420,335 L 417,329 L 420,319 L 407,310 L 411,304 L 423,304 L 422,301 L 432,284 L 449,275 L 453,267 L 453,252 L 458,250 L 456,239 L 457,234 L 463,239 L 476,235 L 481,238 L 488,227 L 490,220 L 495,220 L 498,214 L 497,202 L 505,204 L 508,199 L 513,198 L 515,194 L 525,191 L 529,192 " />
</g>
<g class="map_elem" id="c_5" label="Alta Ribagorça">
<path d="M 322,143 L 328,146 L 328,153 L 334,155 L 336,162 L 342,163 L 345,168 L 354,172 L 355,183 L 348,189 L 350,193 L 344,196 L 345,199 L 340,200 L 337,204 L 335,206 L 337,212 L 336,215 L 326,218 L 320,228 L 316,226 L 314,229 L 310,230 L 317,234 L 314,242 L 310,244 L 301,244 L 299,249 L 303,255 L 299,260 L 302,266 L 304,265 L 304,269 L 313,273 L 316,285 L 323,289 L 321,303 L 316,306 L 307,299 L 295,298 L 279,289 L 281,285 L 276,281 L 288,282 L 293,277 L 287,269 L 279,268 L 276,272 L 276,277 L 270,277 L 262,272 L 271,263 L 268,256 L 264,253 L 267,249 L 264,242 L 259,238 L 258,226 L 252,212 L 254,213 L 256,208 L 260,212 L 268,204 L 270,204 L 266,200 L 263,200 L 263,194 L 268,187 L 274,189 L 271,184 L 278,171 L 281,152 L 298,148 L 298,151 L 303,155 L 308,154 L 322,143 " />
</g>
<g class="map_elem" id="c_6" label="Anoia">
<path d="M 514,555 L 522,557 L 530,556 L 530,565 L 526,568 L 529,571 L 534,570 L 534,568 L 536,567 L 534,561 L 542,562 L 544,571 L 552,574 L 551,580 L 553,580 L 553,578 L 557,578 L 558,571 L 563,572 L 563,568 L 566,568 L 567,566 L 571,571 L 574,572 L 575,578 L 572,583 L 571,589 L 578,591 L 579,598 L 569,595 L 558,601 L 563,602 L 570,607 L 575,606 L 577,610 L 582,608 L 585,611 L 583,615 L 586,617 L 585,619 L 589,622 L 586,625 L 587,629 L 591,634 L 592,629 L 595,629 L 596,627 L 598,628 L 598,630 L 601,630 L 600,637 L 606,646 L 609,645 L 613,647 L 623,634 L 634,635 L 640,629 L 642,630 L 642,634 L 646,637 L 645,651 L 654,655 L 651,670 L 647,675 L 656,679 L 660,690 L 668,696 L 669,700 L 669,703 L 665,703 L 663,706 L 665,709 L 660,708 L 657,715 L 652,715 L 651,719 L 646,717 L 648,722 L 639,724 L 640,730 L 637,732 L 630,728 L 630,726 L 617,722 L 613,718 L 604,702 L 587,701 L 581,698 L 577,698 L 579,702 L 575,703 L 576,707 L 569,709 L 564,714 L 564,718 L 568,723 L 571,724 L 572,728 L 564,732 L 561,729 L 557,728 L 553,733 L 551,731 L 550,734 L 541,736 L 538,739 L 536,735 L 528,735 L 526,731 L 533,721 L 528,711 L 520,710 L 518,706 L 504,701 L 499,697 L 504,686 L 511,688 L 515,684 L 519,685 L 519,678 L 514,679 L 513,676 L 521,670 L 509,663 L 505,666 L 499,666 L 500,661 L 505,659 L 505,654 L 499,654 L 493,650 L 493,648 L 487,647 L 497,641 L 499,637 L 507,637 L 513,640 L 514,638 L 518,637 L 521,635 L 521,632 L 514,629 L 511,620 L 508,617 L 511,613 L 504,612 L 504,608 L 501,607 L 503,603 L 496,601 L 512,589 L 504,583 L 511,559 L 510,558 L 514,555 " />
</g>
<g class="map_elem" id="c_7" label="Bages">
<path d="M 726,477 L 737,480 L 735,489 L 734,490 L 738,505 L 743,507 L 741,510 L 730,504 L 730,518 L 725,518 L 731,523 L 719,532 L 715,539 L 716,541 L 726,543 L 729,548 L 734,549 L 738,556 L 716,563 L 707,568 L 689,571 L 694,574 L 693,580 L 694,579 L 698,586 L 716,582 L 725,587 L 725,594 L 729,595 L 732,604 L 732,609 L 727,613 L 728,618 L 725,620 L 728,625 L 727,630 L 720,631 L 717,634 L 709,636 L 702,633 L 702,630 L 699,626 L 698,629 L 694,625 L 689,625 L 682,633 L 684,649 L 676,651 L 674,648 L 672,652 L 673,661 L 661,661 L 654,654 L 645,651 L 646,637 L 642,634 L 642,630 L 640,629 L 634,635 L 623,634 L 613,647 L 609,645 L 606,646 L 600,637 L 601,630 L 598,630 L 598,628 L 596,627 L 595,629 L 592,629 L 591,634 L 587,629 L 586,625 L 589,622 L 585,619 L 586,617 L 583,615 L 585,611 L 582,608 L 577,610 L 575,606 L 570,607 L 563,602 L 558,601 L 569,595 L 573,595 L 576,598 L 580,597 L 578,591 L 571,589 L 575,577 L 574,572 L 570,569 L 575,568 L 577,563 L 573,555 L 575,551 L 582,548 L 583,542 L 581,539 L 589,536 L 587,534 L 589,529 L 585,517 L 578,516 L 572,521 L 566,518 L 569,512 L 572,511 L 573,514 L 578,506 L 580,507 L 584,505 L 592,495 L 597,495 L 594,488 L 597,486 L 596,480 L 602,478 L 610,490 L 621,487 L 622,493 L 627,496 L 626,500 L 628,500 L 634,500 L 635,498 L 639,503 L 647,499 L 652,500 L 655,496 L 658,498 L 664,504 L 667,505 L 666,508 L 668,511 L 670,509 L 668,506 L 669,501 L 675,501 L 683,506 L 683,491 L 688,491 L 687,488 L 702,478 L 709,477 L 714,500 L 719,501 L 720,498 L 714,492 L 716,490 L 717,483 L 724,480 L 720,476 L 725,475 L 726,477 " />
<path d="M 731,489 L 729,491 L 730,493 L 733,491 L 731,489 " />
<path d="M 619,510 L 619,514 L 617,514 L 622,517 L 624,512 L 622,511 L 620,513 L 619,510 " />
</g>
<g class="map_elem" id="c_8" label="Baix Camp">
<path d="M 304,963 L 305,963 L 304,963 " />
<path d="M 328,940 L 328,939 L 328,940 " />
<path d="M 391,912 L 390,912 L 391,912 " />
<path d="M 358,920 L 359,919 L 358,920 " />
<path d="M 352,775 L 353,786 L 358,782 L 361,786 L 364,784 L 366,786 L 375,786 L 367,790 L 371,796 L 375,797 L 372,802 L 372,812 L 370,815 L 383,817 L 387,816 L 389,821 L 395,819 L 396,821 L 401,820 L 404,826 L 410,830 L 407,833 L 417,839 L 416,842 L 418,842 L 412,855 L 403,863 L 409,874 L 412,874 L 420,883 L 419,884 L 415,883 L 413,882 L 415,880 L 410,879 L 409,882 L 413,884 L 414,889 L 411,890 L 414,894 L 410,894 L 405,887 L 398,883 L 394,883 L 396,896 L 390,895 L 387,891 L 384,893 L 383,901 L 392,911 L 379,916 L 375,914 L 371,917 L 372,914 L 365,915 L 354,921 L 350,925 L 343,925 L 326,941 L 322,951 L 316,952 L 300,968 L 295,971 L 294,977 L 279,973 L 280,972 L 274,967 L 272,960 L 266,948 L 264,948 L 268,936 L 268,932 L 266,930 L 280,914 L 287,919 L 293,917 L 295,908 L 293,906 L 296,903 L 300,903 L 299,906 L 300,908 L 301,904 L 297,899 L 292,897 L 288,889 L 284,886 L 287,884 L 294,891 L 303,890 L 306,887 L 309,876 L 314,864 L 313,859 L 315,857 L 305,855 L 305,850 L 315,850 L 321,846 L 317,828 L 329,825 L 340,817 L 342,817 L 339,810 L 341,801 L 336,798 L 330,803 L 327,788 L 334,790 L 338,785 L 343,784 L 349,773 L 352,775 " />
</g>
<g class="map_elem" id="c_9" label="Baix Ebre">
<path d="M 276,998 L 277,998 L 276,998 " />
<path d="M 246,1032 L 246,1033 L 246,1032 " />
<path d="M 251,1059 L 252,1059 L 251,1059 " />
<path d="M 245,1049 L 245,1048 L 245,1049 " />
<path d="M 250,1029 L 249,1029 L 250,1029 " />
<path d="M 258,1060 L 258,1059 L 258,1060 " />
<path d="M 255,1060 L 254,1060 L 255,1060 " />
<path d="M 241,1052 L 241,1053 L 241,1052 " />
<path d="M 245,1048 L 244,1048 L 245,1047 L 245,1048 " />
<path d="M 183,934 L 189,942 L 187,943 L 190,944 L 185,949 L 192,954 L 190,958 L 195,966 L 193,971 L 197,971 L 201,976 L 225,969 L 228,972 L 235,971 L 250,974 L 254,977 L 282,973 L 294,977 L 285,987 L 285,986 L 284,986 L 273,1004 L 273,1002 L 272,1002 L 268,1010 L 260,1014 L 257,1019 L 256,1019 L 253,1019 L 250,1023 L 249,1030 L 247,1030 L 237,1038 L 238,1036 L 236,1037 L 233,1041 L 236,1048 L 244,1057 L 256,1061 L 259,1061 L 263,1058 L 263,1057 L 264,1058 L 264,1056 L 252,1050 L 246,1047 L 246,1048 L 246,1046 L 242,1048 L 244,1046 L 250,1045 L 259,1046 L 280,1075 L 287,1077 L 293,1074 L 294,1077 L 296,1077 L 297,1083 L 285,1084 L 267,1094 L 261,1093 L 252,1086 L 227,1084 L 222,1080 L 199,1087 L 187,1082 L 183,1066 L 181,1064 L 177,1067 L 172,1065 L 160,1070 L 135,1070 L 125,1068 L 114,1059 L 115,1056 L 99,1059 L 95,1057 L 93,1061 L 87,1064 L 79,1061 L 78,1052 L 74,1055 L 72,1053 L 75,1050 L 73,1047 L 65,1045 L 58,1047 L 59,1043 L 68,1037 L 74,1028 L 81,1029 L 86,1020 L 96,1014 L 108,998 L 111,994 L 109,984 L 112,968 L 118,967 L 121,962 L 140,958 L 144,951 L 156,953 L 164,944 L 174,941 L 183,934 " />
</g>
<g class="map_elem" id="c_10" label="Baix Empordà">
<path d="M 1153,531 L 1152,531 L 1153,531 " />
<path d="M 1139,541 L 1139,540 L 1139,541 " />
<path d="M 1173,441 L 1173,440 L 1173,441 " />
<path d="M 1163,420 L 1163,419 L 1163,420 " />
<path d="M 1173,440 L 1172,440 L 1173,440 " />
<path d="M 1121,550 L 1121,549 L 1121,550 " />
<path d="M 1172,495 L 1171,495 L 1172,495 " />
<path d="M 1174,441 L 1175,441 L 1174,441 " />
<path d="M 1126,546 L 1126,545 L 1126,546 " />
<path d="M 1167,514 L 1167,513 L 1167,514 " />
<path d="M 1110,569 L 1109,569 L 1110,569 " />
<path d="M 1095,576 L 1094,576 L 1095,576 " />
<path d="M 1173,500 L 1173,499 L 1173,500 " />
<path d="M 1156,530 L 1155,530 L 1156,530 " />
<path d="M 1123,549 L 1122,549 L 1123,549 " />
<path d="M 1148,531 L 1147,531 L 1148,531 " />
<path d="M 1170,430 L 1170,429 L 1170,430 " />
<path d="M 1172,497 L 1171,497 L 1172,497 " />
<path d="M 1121,550 L 1121,549 L 1121,550 " />
<path d="M 1176,490 L 1175,490 L 1176,490 " />
<path d="M 1157,527 L 1158,527 L 1157,527 " />
<path d="M 1177,483 L 1177,482 L 1177,483 " />
<path d="M 1147,532 L 1147,533 L 1147,532 " />
<path d="M 1161,530 L 1161,531 L 1161,530 " />
<path d="M 1148,533 L 1147,533 L 1148,533 " />
<path d="M 1147,533 L 1146,533 L 1147,533 " />
<path d="M 1109,568 L 1109,567 L 1109,568 " />
<path d="M 1169,508 L 1168,508 L 1169,508 " />
<path d="M 1144,537 L 1144,538 L 1144,537 " />
<path d="M 1176,477 L 1177,478 L 1176,477 " />
<path d="M 1115,564 L 1114,564 L 1115,564 " />
<path d="M 1122,550 L 1122,549 L 1122,550 " />
<path d="M 1173,499 L 1172,499 L 1173,499 " />
<path d="M 1173,476 L 1173,475 L 1173,476 " />
<path d="M 1110,569 L 1109,569 L 1110,569 " />
<path d="M 1160,521 L 1159,521 L 1160,521 " />
<path d="M 1110,570 L 1110,569 L 1110,570 " />
<path d="M 1175,442 L 1175,443 L 1175,442 " />
<path d="M 1161,530 L 1161,531 L 1161,530 " />
<path d="M 1126,545 L 1126,546 L 1126,545 " />
<path d="M 1149,531 L 1148,531 L 1149,531 " />
<path d="M 1103,576 L 1102,576 L 1103,576 " />
<path d="M 1109,569 L 1110,569 L 1109,570 L 1109,569 " />
<path d="M 1085,582 L 1086,582 L 1085,582 " />
<path d="M 1148,532 L 1148,533 L 1148,532 " />
<path d="M 1151,532 L 1151,531 L 1151,532 " />
<path d="M 1160,530 L 1161,530 L 1160,530 " />
<path d="M 1122,549 L 1122,550 L 1122,549 " />
<path d="M 1176,442 L 1175,442 L 1176,442 " />
<path d="M 1165,421 L 1164,421 L 1165,421 " />
<path d="M 1113,567 L 1113,568 L 1113,567 " />
<path d="M 1114,559 L 1113,559 L 1114,559 " />
<path d="M 1167,426 L 1168,427 L 1167,427 L 1167,426 " />
<path d="M 1173,501 L 1173,502 L 1172,501 L 1173,501 " />
<path d="M 1175,441 L 1175,442 L 1174,441 L 1175,441 " />
<path d="M 1175,439 L 1174,441 L 1173,441 L 1173,440 L 1175,439 " />
<path d="M 1095,396 L 1106,404 L 1109,409 L 1117,405 L 1125,403 L 1127,401 L 1128,405 L 1132,406 L 1132,412 L 1140,410 L 1140,415 L 1151,409 L 1154,410 L 1156,413 L 1159,411 L 1164,422 L 1166,422 L 1165,425 L 1170,429 L 1169,431 L 1169,433 L 1171,433 L 1170,436 L 1168,438 L 1168,437 L 1166,437 L 1167,438 L 1164,441 L 1163,451 L 1165,463 L 1169,476 L 1170,476 L 1170,475 L 1173,475 L 1175,478 L 1177,478 L 1175,480 L 1176,481 L 1177,481 L 1177,483 L 1178,482 L 1178,483 L 1177,483 L 1176,485 L 1178,487 L 1175,490 L 1174,490 L 1172,491 L 1171,494 L 1173,495 L 1173,496 L 1171,498 L 1173,499 L 1172,500 L 1172,501 L 1171,501 L 1172,503 L 1168,504 L 1170,508 L 1169,508 L 1168,508 L 1169,511 L 1167,516 L 1164,515 L 1162,518 L 1161,518 L 1159,518 L 1159,519 L 1159,520 L 1159,521 L 1158,522 L 1158,523 L 1159,524 L 1157,529 L 1153,530 L 1153,531 L 1151,531 L 1151,532 L 1148,531 L 1145,533 L 1145,537 L 1143,537 L 1143,539 L 1142,539 L 1142,540 L 1142,538 L 1141,538 L 1142,539 L 1140,541 L 1139,540 L 1137,541 L 1136,541 L 1139,540 L 1137,538 L 1130,539 L 1127,543 L 1126,545 L 1124,546 L 1118,552 L 1117,561 L 1115,559 L 1112,559 L 1116,561 L 1116,562 L 1115,562 L 1113,568 L 1112,566 L 1109,567 L 1110,570 L 1108,570 L 1108,572 L 1107,572 L 1104,573 L 1106,572 L 1106,571 L 1103,571 L 1104,575 L 1096,575 L 1093,578 L 1085,581 L 1080,584 L 1074,577 L 1077,574 L 1076,568 L 1071,566 L 1066,549 L 1081,547 L 1078,536 L 1071,529 L 1076,520 L 1072,518 L 1069,513 L 1054,511 L 1050,507 L 1056,503 L 1055,496 L 1060,495 L 1061,497 L 1064,493 L 1072,493 L 1072,480 L 1074,476 L 1083,474 L 1083,471 L 1087,468 L 1084,463 L 1077,463 L 1074,460 L 1075,447 L 1078,444 L 1080,446 L 1085,445 L 1085,441 L 1082,433 L 1084,427 L 1082,426 L 1081,421 L 1077,416 L 1075,416 L 1075,410 L 1076,408 L 1083,406 L 1090,402 L 1091,397 L 1093,394 L 1095,396 " />
</g>
<g class="map_elem" id="c_11" label="Baix Llobregat">
<path d="M 654,655 L 661,661 L 678,662 L 683,666 L 680,667 L 690,672 L 694,671 L 693,678 L 697,680 L 699,691 L 705,695 L 705,701 L 699,702 L 694,711 L 698,713 L 702,722 L 704,720 L 708,726 L 713,724 L 714,731 L 720,738 L 722,726 L 731,728 L 735,735 L 746,734 L 744,743 L 742,744 L 743,751 L 748,747 L 751,749 L 748,753 L 749,754 L 754,751 L 759,752 L 761,754 L 758,759 L 760,766 L 759,772 L 754,772 L 759,780 L 755,785 L 766,794 L 778,794 L 779,798 L 774,803 L 775,807 L 778,807 L 783,801 L 783,797 L 783,801 L 778,807 L 775,808 L 772,805 L 773,809 L 772,807 L 770,807 L 749,817 L 722,823 L 701,823 L 698,817 L 701,815 L 693,809 L 685,814 L 681,813 L 678,815 L 674,815 L 674,808 L 668,805 L 665,801 L 665,795 L 674,786 L 674,783 L 678,783 L 684,778 L 680,769 L 674,765 L 674,761 L 676,760 L 677,753 L 680,751 L 679,748 L 684,739 L 675,726 L 675,717 L 665,710 L 663,706 L 665,702 L 669,702 L 669,696 L 660,690 L 656,679 L 647,675 L 651,670 L 654,655 " />
</g>
<g class="map_elem" id="c_12" label="Baix Penedès">
<path d="M 581,857 L 581,856 L 581,857 " />
<path d="M 586,797 L 588,797 L 589,797 L 584,798 L 586,797 " />
<path d="M 555,768 L 562,768 L 563,772 L 566,772 L 566,776 L 564,775 L 558,781 L 561,783 L 564,795 L 572,799 L 569,806 L 578,810 L 579,806 L 585,804 L 587,805 L 583,806 L 584,811 L 580,814 L 583,818 L 580,826 L 575,828 L 571,823 L 562,822 L 566,834 L 574,835 L 581,841 L 584,840 L 588,835 L 592,849 L 588,847 L 589,856 L 588,855 L 577,857 L 575,860 L 575,859 L 575,857 L 575,860 L 574,858 L 567,858 L 533,865 L 529,858 L 527,847 L 512,850 L 508,845 L 501,845 L 496,848 L 495,840 L 500,838 L 501,832 L 504,829 L 512,826 L 506,820 L 499,820 L 500,816 L 502,814 L 514,815 L 512,808 L 499,805 L 505,802 L 509,798 L 500,789 L 523,774 L 534,775 L 538,772 L 541,773 L 547,769 L 551,761 L 555,768 " />
</g>
<g class="map_elem" id="c_13" label="Barcelonès">
<path d="M 806,752 L 806,753 L 806,752 " />
<path d="M 782,785 L 781,785 L 782,785 " />
<path d="M 789,774 L 789,773 L 789,774 " />
<path d="M 807,753 L 806,752 L 807,752 L 807,753 " />
<path d="M 804,755 L 805,754 L 804,755 " />
<path d="M 806,752 L 807,752 L 806,753 L 806,752 " />
<path d="M 744,739 L 747,742 L 748,747 L 743,751 L 742,744 L 744,743 L 744,739 " />
<path d="M 809,711 L 813,712 L 822,727 L 815,734 L 812,741 L 813,739 L 811,739 L 812,741 L 809,746 L 809,749 L 807,752 L 808,749 L 806,749 L 807,751 L 806,751 L 806,753 L 805,753 L 806,754 L 803,754 L 797,762 L 797,763 L 796,765 L 797,763 L 795,763 L 790,777 L 792,773 L 791,774 L 790,774 L 791,766 L 788,769 L 790,770 L 787,770 L 787,773 L 790,774 L 787,781 L 785,793 L 786,797 L 784,793 L 785,782 L 789,774 L 786,775 L 787,777 L 785,776 L 784,782 L 779,785 L 778,783 L 777,787 L 775,788 L 777,791 L 780,785 L 783,785 L 777,795 L 765,794 L 755,785 L 759,780 L 754,772 L 759,772 L 760,766 L 758,759 L 761,754 L 759,752 L 754,751 L 751,755 L 749,754 L 749,751 L 752,748 L 750,745 L 752,744 L 749,744 L 751,742 L 749,738 L 755,742 L 758,740 L 760,742 L 767,744 L 772,733 L 783,732 L 784,727 L 789,725 L 789,723 L 796,720 L 801,721 L 802,714 L 806,711 L 809,711 " />
</g>
<g class="map_elem" id="c_14" label="Berguedà">
<path d="M 601,403 L 613,404 L 615,406 L 609,408 L 596,404 L 601,403 " />
<path d="M 697,304 L 704,305 L 707,309 L 709,306 L 721,314 L 734,308 L 752,318 L 752,322 L 748,323 L 743,329 L 742,333 L 737,337 L 736,347 L 733,347 L 738,355 L 741,352 L 746,353 L 746,365 L 750,367 L 748,375 L 740,373 L 738,374 L 737,379 L 729,381 L 725,376 L 729,371 L 726,367 L 729,366 L 714,363 L 713,368 L 714,373 L 724,371 L 723,377 L 729,385 L 728,387 L 738,386 L 740,391 L 745,391 L 752,398 L 751,401 L 744,401 L 746,408 L 743,410 L 749,413 L 747,418 L 745,415 L 742,416 L 741,420 L 743,421 L 739,423 L 735,414 L 731,415 L 729,419 L 729,436 L 724,447 L 730,446 L 734,449 L 728,456 L 728,463 L 724,466 L 725,472 L 720,476 L 724,480 L 717,483 L 716,490 L 714,492 L 720,498 L 719,501 L 714,500 L 709,477 L 702,478 L 687,488 L 688,491 L 683,491 L 683,506 L 675,501 L 669,501 L 668,506 L 670,509 L 668,511 L 666,508 L 667,505 L 664,504 L 658,498 L 655,496 L 652,500 L 647,499 L 639,503 L 635,498 L 634,500 L 628,500 L 626,500 L 627,496 L 622,493 L 621,487 L 610,490 L 602,478 L 596,480 L 595,479 L 597,469 L 600,470 L 602,467 L 606,468 L 603,474 L 609,475 L 622,467 L 620,463 L 622,459 L 618,459 L 615,453 L 612,457 L 615,463 L 614,466 L 610,462 L 602,463 L 600,458 L 598,463 L 596,459 L 600,448 L 603,449 L 601,452 L 603,454 L 601,456 L 603,458 L 605,451 L 616,445 L 613,437 L 610,435 L 608,440 L 605,437 L 607,430 L 613,422 L 613,417 L 619,419 L 622,418 L 624,415 L 625,410 L 618,407 L 621,401 L 616,396 L 616,393 L 622,383 L 624,385 L 629,381 L 631,373 L 630,369 L 628,369 L 627,377 L 620,380 L 614,374 L 612,375 L 610,378 L 610,375 L 609,377 L 605,376 L 606,379 L 601,378 L 596,362 L 586,360 L 584,354 L 590,342 L 595,337 L 612,333 L 615,330 L 614,323 L 607,321 L 608,319 L 623,318 L 624,320 L 630,320 L 633,317 L 652,316 L 656,311 L 666,312 L 673,307 L 683,307 L 691,302 L 697,304 " />
<path d="M 734,398 L 727,399 L 729,409 L 733,407 L 733,401 L 737,402 L 738,399 L 734,396 L 734,398 " />
</g>
<g class="map_elem" id="c_15" label="Cerdanya">
<path d="M 727,222 L 723,229 L 725,233 L 732,237 L 733,240 L 722,241 L 714,238 L 712,235 L 714,226 L 720,222 L 721,217 L 725,218 L 727,222 " />
<path d="M 613,216 L 620,219 L 629,212 L 630,217 L 636,216 L 642,220 L 653,221 L 657,219 L 662,222 L 664,221 L 668,223 L 673,230 L 684,234 L 686,239 L 689,240 L 691,239 L 697,241 L 705,237 L 707,242 L 706,249 L 713,252 L 711,258 L 715,273 L 722,283 L 732,287 L 733,290 L 728,293 L 723,292 L 723,298 L 713,297 L 711,307 L 709,306 L 707,309 L 704,305 L 696,304 L 692,302 L 683,307 L 673,307 L 666,312 L 656,311 L 653,315 L 646,317 L 633,317 L 631,320 L 626,320 L 623,318 L 608,319 L 606,322 L 600,319 L 603,294 L 600,288 L 604,281 L 603,279 L 601,279 L 602,270 L 599,263 L 585,253 L 583,250 L 581,240 L 576,237 L 577,232 L 582,229 L 594,231 L 596,229 L 603,229 L 605,226 L 605,217 L 608,211 L 613,216 " />
</g>
<g class="map_elem" id="c_16" label="Conca de Barberà">
<path d="M 514,665 L 521,670 L 513,676 L 514,679 L 519,678 L 519,685 L 515,684 L 511,688 L 504,686 L 499,697 L 504,701 L 518,706 L 520,710 L 528,711 L 528,715 L 524,719 L 521,719 L 521,723 L 516,728 L 509,728 L 502,735 L 494,729 L 484,739 L 479,737 L 474,739 L 471,728 L 465,738 L 460,739 L 458,743 L 448,750 L 446,759 L 441,759 L 440,763 L 437,764 L 434,778 L 430,783 L 424,786 L 422,793 L 416,790 L 396,797 L 389,794 L 391,793 L 390,792 L 375,789 L 375,786 L 366,786 L 364,784 L 361,786 L 358,782 L 353,786 L 353,776 L 350,773 L 346,776 L 343,784 L 338,785 L 334,790 L 316,784 L 318,777 L 316,774 L 331,774 L 338,771 L 338,765 L 342,762 L 345,753 L 349,755 L 353,747 L 358,748 L 362,745 L 370,730 L 373,729 L 376,723 L 379,724 L 380,721 L 367,710 L 371,707 L 367,702 L 368,700 L 384,712 L 391,713 L 394,717 L 401,712 L 419,707 L 418,701 L 415,699 L 414,695 L 418,686 L 416,686 L 414,685 L 419,685 L 415,683 L 416,682 L 431,678 L 435,668 L 448,667 L 449,669 L 454,667 L 462,670 L 466,667 L 491,671 L 497,676 L 503,675 L 502,671 L 500,670 L 500,665 L 505,666 L 509,663 L 514,665 " />
</g>
<g class="map_elem" id="c_17" label="Garraf">
<path d="M 636,843 L 636,842 L 636,843 " />
<path d="M 645,839 L 644,839 L 645,839 " />
<path d="M 643,841 L 643,840 L 643,841 " />
<path d="M 595,855 L 596,855 L 595,855 " />
<path d="M 597,854 L 597,855 L 597,854 " />
<path d="M 599,854 L 598,854 L 599,854 " />
<path d="M 642,791 L 644,793 L 658,794 L 662,796 L 666,795 L 665,801 L 668,805 L 674,808 L 674,815 L 678,815 L 681,813 L 685,814 L 694,809 L 701,815 L 698,817 L 701,823 L 673,832 L 672,834 L 672,835 L 671,835 L 672,834 L 667,836 L 658,835 L 657,837 L 656,837 L 657,836 L 652,836 L 643,841 L 633,844 L 626,844 L 624,847 L 621,850 L 623,847 L 623,845 L 620,845 L 620,849 L 620,847 L 615,847 L 600,854 L 590,856 L 592,855 L 593,854 L 590,855 L 588,852 L 588,847 L 592,849 L 588,835 L 599,829 L 599,825 L 607,817 L 611,808 L 611,804 L 618,803 L 624,806 L 632,802 L 636,792 L 639,790 L 642,791 " />
</g>
<g class="map_elem" id="c_18" label="Garrigues">
<path d="M 332,658 L 337,658 L 342,662 L 340,666 L 349,675 L 347,677 L 349,682 L 345,691 L 357,694 L 361,699 L 367,698 L 367,702 L 371,707 L 367,710 L 374,717 L 381,720 L 379,724 L 376,723 L 373,729 L 370,730 L 362,745 L 358,748 L 353,747 L 349,755 L 345,753 L 342,762 L 338,765 L 338,771 L 331,774 L 319,773 L 301,779 L 294,766 L 292,767 L 288,769 L 287,777 L 283,784 L 263,779 L 259,784 L 259,787 L 238,789 L 233,792 L 229,791 L 213,800 L 201,798 L 196,789 L 196,785 L 198,776 L 198,757 L 213,746 L 216,740 L 212,729 L 215,720 L 217,722 L 228,718 L 229,710 L 232,707 L 239,709 L 241,697 L 246,685 L 252,689 L 260,682 L 261,683 L 264,679 L 263,678 L 264,673 L 272,673 L 272,665 L 276,667 L 277,665 L 283,663 L 289,664 L 291,666 L 291,664 L 294,667 L 309,657 L 313,663 L 324,656 L 332,658 " />
</g>
<g class="map_elem" id="c_19" label="Garrotxa">
<path d="M 925,298 L 932,306 L 943,301 L 951,306 L 953,312 L 957,309 L 956,317 L 967,317 L 970,324 L 971,329 L 969,332 L 972,333 L 973,336 L 974,335 L 972,334 L 979,334 L 974,330 L 981,328 L 986,332 L 983,340 L 989,339 L 991,341 L 994,333 L 1009,339 L 1008,346 L 1011,351 L 1011,358 L 1007,363 L 1008,370 L 997,374 L 991,371 L 986,377 L 977,379 L 974,378 L 976,376 L 970,376 L 971,385 L 967,386 L 968,393 L 966,396 L 969,398 L 970,402 L 967,404 L 962,417 L 957,420 L 960,436 L 957,444 L 961,445 L 962,448 L 968,454 L 967,455 L 959,454 L 959,457 L 956,457 L 955,451 L 949,449 L 945,438 L 941,445 L 938,446 L 930,441 L 926,443 L 925,448 L 921,449 L 909,435 L 906,429 L 903,430 L 900,425 L 897,426 L 894,423 L 891,424 L 882,432 L 876,428 L 870,420 L 873,412 L 864,410 L 863,405 L 866,401 L 855,394 L 854,390 L 857,384 L 863,383 L 864,380 L 866,382 L 868,380 L 864,379 L 862,376 L 859,378 L 858,370 L 854,366 L 853,362 L 849,360 L 851,358 L 862,356 L 864,352 L 864,349 L 858,351 L 854,350 L 853,343 L 867,338 L 864,332 L 869,328 L 875,327 L 875,324 L 879,321 L 883,323 L 884,321 L 890,324 L 892,323 L 896,325 L 904,321 L 902,313 L 908,315 L 912,313 L 913,324 L 922,325 L 930,322 L 929,320 L 918,319 L 920,312 L 917,302 L 919,299 L 925,298 " />
</g>
<g class="map_elem" id="c_20" label="Gironès">
<path d="M 1066,406 L 1075,407 L 1075,416 L 1077,416 L 1081,421 L 1082,426 L 1084,427 L 1082,433 L 1085,439 L 1085,445 L 1081,446 L 1078,444 L 1075,447 L 1074,458 L 1077,463 L 1084,463 L 1087,468 L 1083,471 L 1083,474 L 1074,476 L 1072,480 L 1072,493 L 1064,493 L 1061,497 L 1060,495 L 1055,496 L 1056,503 L 1050,507 L 1054,511 L 1069,513 L 1072,518 L 1076,520 L 1071,529 L 1078,536 L 1081,547 L 1066,549 L 1071,566 L 1076,568 L 1077,574 L 1070,581 L 1066,582 L 1056,575 L 1045,575 L 1038,565 L 1038,561 L 1041,558 L 1045,557 L 1045,554 L 1042,554 L 1043,556 L 1038,556 L 1036,554 L 1041,537 L 1037,537 L 1032,531 L 1025,537 L 1022,523 L 1025,516 L 1025,510 L 1023,508 L 1025,506 L 1020,505 L 1011,510 L 1006,507 L 999,499 L 988,501 L 981,500 L 983,497 L 981,493 L 975,488 L 969,486 L 967,483 L 972,480 L 973,476 L 971,475 L 970,468 L 967,465 L 968,454 L 960,444 L 957,444 L 960,436 L 957,419 L 975,422 L 979,417 L 985,417 L 994,421 L 993,424 L 1004,428 L 1007,435 L 1011,435 L 1011,439 L 1014,444 L 1020,447 L 1020,443 L 1023,445 L 1032,443 L 1030,436 L 1037,436 L 1036,432 L 1040,429 L 1040,424 L 1044,426 L 1046,430 L 1049,428 L 1049,430 L 1051,430 L 1053,427 L 1053,417 L 1057,409 L 1066,406 " />
</g>
<g class="map_elem" id="c_21" label="Maresme">
<path d="M 959,657 L 960,657 L 959,657 " />
<path d="M 991,588 L 998,593 L 1010,593 L 1010,595 L 1006,598 L 1009,610 L 1008,616 L 1003,620 L 1010,635 L 956,658 L 930,671 L 929,672 L 928,672 L 930,671 L 931,669 L 928,669 L 929,671 L 923,672 L 910,681 L 911,680 L 911,679 L 896,686 L 887,695 L 888,692 L 887,694 L 885,694 L 870,706 L 862,711 L 860,713 L 858,714 L 859,713 L 838,721 L 837,721 L 839,719 L 840,719 L 837,720 L 838,720 L 822,727 L 820,724 L 814,713 L 822,703 L 828,700 L 836,701 L 842,699 L 845,696 L 840,691 L 847,686 L 848,677 L 849,678 L 862,661 L 864,661 L 869,655 L 871,655 L 879,644 L 889,644 L 890,646 L 891,644 L 902,644 L 902,646 L 907,648 L 918,646 L 925,631 L 942,630 L 944,625 L 948,622 L 945,618 L 950,614 L 957,615 L 960,604 L 964,599 L 971,603 L 983,596 L 991,588 " />
</g>
<g class="map_elem" id="c_22" label="Montsià">
<path d="M 208,1149 L 207,1149 L 208,1149 " />
<path d="M 207,1150 L 207,1149 L 207,1150 " />
<path d="M 194,1151 L 193,1151 L 194,1151 " />
<path d="M 210,1147 L 210,1148 L 210,1147 " />
<path d="M 207,1149 L 207,1148 L 207,1149 " />
<path d="M 210,1148 L 210,1147 L 210,1148 " />
<path d="M 211,1147 L 210,1147 L 211,1147 " />
<path d="M 208,1151 L 208,1150 L 208,1151 " />
<path d="M 209,1148 L 208,1148 L 209,1148 " />
<path d="M 209,1152 L 209,1151 L 209,1152 " />
<path d="M 209,1150 L 209,1149 L 209,1150 L 209,1149 L 209,1150 " />
<path d="M 209,1152 L 209,1151 L 208,1151 L 209,1151 L 209,1152 " />
<path d="M 210,1152 L 209,1152 L 210,1152 " />
<path d="M 211,1150 L 211,1149 L 211,1150 " />
<path d="M 208,1148 L 207,1148 L 208,1148 " />
<path d="M 213,1148 L 212,1148 L 213,1148 " />
<path d="M 209,1151 L 208,1151 L 209,1151 " />
<path d="M 209,1151 L 208,1151 L 208,1150 L 209,1151 " />
<path d="M 211,1151 L 211,1150 L 211,1151 " />
<path d="M 209,1148 L 208,1148 L 209,1148 L 208,1148 L 209,1148 " />
<path d="M 211,1147 L 212,1148 L 211,1148 L 211,1147 " />
<path d="M 209,1147 L 209,1148 L 209,1147 " />
<path d="M 210,1147 L 209,1147 L 210,1147 " />
<path d="M 206,1148 L 205,1148 L 206,1148 " />
<path d="M 209,1150 L 209,1151 L 209,1150 " />
<path d="M 209,1151 L 208,1151 L 209,1151 " />
<path d="M 210,1152 L 210,1151 L 210,1152 " />
<path d="M 211,1150 L 211,1149 L 211,1150 " />
<path d="M 211,1150 L 211,1149 L 211,1150 " />
<path d="M 213,1149 L 212,1148 L 213,1148 L 213,1149 " />
<path d="M 210,1150 L 210,1149 L 210,1150 " />
<path d="M 199,1150 L 198,1151 L 199,1150 " />
<path d="M 211,1147 L 211,1148 L 211,1147 " />
<path d="M 210,1151 L 209,1151 L 210,1151 " />
<path d="M 213,1148 L 214,1149 L 213,1148 " />
<path d="M 204,1148 L 205,1148 L 204,1149 L 204,1148 " />
<path d="M 214,1149 L 214,1150 L 213,1149 L 214,1149 " />
<path d="M 212,1147 L 213,1147 L 211,1147 L 212,1147 " />
<path d="M 206,1149 L 206,1150 L 205,1149 L 206,1149 " />
<path d="M 65,1046 L 73,1047 L 75,1050 L 72,1053 L 74,1055 L 78,1052 L 79,1061 L 87,1064 L 93,1061 L 95,1057 L 99,1059 L 115,1056 L 114,1059 L 125,1068 L 135,1070 L 160,1070 L 172,1065 L 177,1067 L 181,1064 L 183,1066 L 187,1082 L 199,1087 L 222,1080 L 227,1084 L 252,1086 L 261,1093 L 267,1094 L 286,1084 L 298,1084 L 294,1095 L 290,1100 L 253,1120 L 230,1151 L 217,1160 L 207,1163 L 199,1162 L 191,1156 L 190,1149 L 193,1152 L 197,1150 L 200,1153 L 200,1146 L 205,1151 L 211,1153 L 210,1151 L 211,1151 L 212,1150 L 212,1149 L 213,1150 L 214,1150 L 213,1147 L 216,1144 L 233,1144 L 248,1122 L 244,1120 L 234,1123 L 228,1120 L 228,1122 L 225,1122 L 218,1127 L 196,1127 L 197,1131 L 195,1131 L 196,1128 L 194,1128 L 195,1129 L 193,1129 L 194,1130 L 194,1131 L 193,1132 L 193,1129 L 191,1131 L 195,1134 L 190,1132 L 173,1151 L 174,1153 L 176,1152 L 174,1153 L 173,1152 L 170,1154 L 166,1162 L 168,1162 L 163,1166 L 160,1176 L 132,1163 L 130,1154 L 134,1148 L 126,1144 L 120,1139 L 119,1135 L 114,1133 L 96,1132 L 87,1129 L 81,1123 L 78,1124 L 75,1122 L 69,1113 L 72,1102 L 76,1100 L 79,1092 L 68,1083 L 58,1085 L 55,1078 L 55,1069 L 44,1073 L 42,1070 L 38,1071 L 34,1069 L 31,1060 L 36,1065 L 37,1058 L 39,1059 L 40,1058 L 42,1060 L 50,1052 L 57,1053 L 59,1046 L 65,1046 " />
<path d="M 195,1128 L 194,1128 L 193,1129 L 194,1128 L 195,1128 L 196,1128 L 195,1128 " />
</g>
<g class="map_elem" id="c_23" label="Noguera">
<path d="M 421,398 L 419,404 L 421,415 L 426,414 L 427,412 L 428,414 L 433,412 L 437,418 L 441,417 L 440,422 L 447,425 L 448,430 L 445,433 L 448,438 L 446,446 L 455,458 L 453,465 L 455,470 L 449,486 L 454,485 L 463,477 L 473,482 L 471,490 L 466,495 L 467,497 L 465,501 L 465,507 L 462,517 L 445,533 L 439,545 L 435,549 L 431,547 L 417,563 L 408,561 L 407,553 L 413,545 L 410,544 L 406,552 L 393,548 L 395,540 L 399,543 L 403,538 L 400,527 L 395,528 L 394,526 L 379,557 L 368,568 L 364,564 L 359,567 L 351,567 L 352,565 L 345,575 L 339,580 L 341,586 L 344,584 L 350,586 L 349,595 L 345,600 L 333,601 L 325,592 L 324,583 L 306,581 L 302,587 L 306,589 L 303,595 L 297,597 L 296,594 L 286,594 L 285,600 L 280,598 L 273,600 L 272,606 L 268,607 L 260,594 L 255,600 L 251,598 L 248,601 L 246,599 L 242,601 L 240,595 L 231,586 L 224,573 L 217,566 L 213,557 L 205,545 L 202,535 L 203,518 L 213,513 L 214,511 L 208,507 L 211,496 L 209,491 L 214,490 L 198,483 L 197,480 L 207,467 L 209,466 L 214,470 L 213,468 L 216,467 L 216,462 L 221,455 L 226,454 L 228,459 L 229,453 L 233,451 L 236,444 L 233,444 L 231,439 L 234,431 L 237,431 L 239,428 L 238,421 L 243,414 L 247,423 L 254,426 L 265,426 L 266,429 L 273,433 L 286,432 L 309,436 L 318,432 L 319,436 L 330,443 L 362,444 L 367,438 L 369,439 L 385,437 L 387,452 L 389,451 L 393,442 L 388,433 L 388,431 L 394,427 L 397,418 L 401,413 L 404,411 L 412,397 L 416,399 L 418,395 L 421,395 L 421,398 " />
<path d="M 338,578 L 339,579 L 345,574 L 349,565 L 344,574 L 338,578 " />
<path d="M 373,524 L 369,527 L 368,526 L 364,529 L 364,534 L 366,534 L 365,539 L 368,543 L 376,538 L 377,535 L 381,536 L 378,525 L 373,524 " />
</g>
<g class="map_elem" id="c_24" label="Osona">
<path d="M 732,489 L 733,491 L 730,493 L 729,491 L 732,489 " />
<path d="M 863,377 L 868,380 L 867,382 L 864,380 L 863,383 L 857,384 L 854,390 L 855,394 L 866,401 L 863,405 L 864,410 L 873,412 L 870,420 L 876,428 L 882,432 L 894,423 L 895,426 L 902,426 L 903,429 L 906,429 L 908,433 L 902,437 L 906,444 L 911,447 L 910,451 L 907,452 L 907,457 L 910,458 L 908,462 L 903,464 L 900,462 L 897,465 L 904,470 L 899,474 L 899,477 L 896,479 L 887,478 L 886,475 L 882,478 L 887,482 L 885,488 L 888,491 L 894,490 L 895,493 L 898,493 L 901,497 L 902,504 L 893,513 L 889,514 L 888,519 L 891,521 L 891,526 L 889,531 L 878,536 L 881,541 L 874,549 L 878,555 L 876,557 L 878,558 L 873,560 L 865,556 L 863,562 L 858,565 L 859,569 L 858,576 L 847,578 L 845,566 L 842,566 L 836,561 L 831,566 L 824,562 L 823,558 L 814,569 L 817,577 L 816,585 L 820,587 L 818,592 L 821,592 L 821,594 L 818,595 L 811,593 L 802,596 L 795,594 L 792,588 L 794,583 L 793,565 L 789,561 L 793,555 L 797,542 L 794,538 L 793,530 L 790,534 L 783,532 L 778,534 L 777,531 L 775,531 L 772,526 L 773,521 L 770,518 L 776,516 L 778,510 L 776,505 L 775,504 L 775,503 L 774,503 L 773,505 L 764,509 L 759,508 L 758,506 L 752,510 L 748,509 L 742,511 L 740,509 L 741,510 L 743,506 L 738,505 L 734,490 L 735,489 L 737,480 L 732,478 L 727,478 L 725,475 L 720,476 L 725,472 L 724,466 L 728,463 L 728,456 L 734,449 L 730,446 L 724,447 L 729,436 L 729,419 L 731,415 L 735,414 L 739,423 L 743,421 L 741,420 L 742,416 L 745,415 L 747,418 L 749,413 L 743,410 L 746,408 L 744,401 L 751,401 L 752,396 L 749,395 L 752,391 L 760,390 L 763,392 L 763,400 L 772,406 L 779,397 L 786,395 L 795,396 L 795,400 L 800,401 L 801,397 L 804,398 L 801,396 L 805,392 L 813,391 L 815,394 L 821,394 L 825,391 L 826,393 L 831,393 L 835,387 L 828,388 L 833,385 L 829,383 L 827,384 L 828,382 L 823,381 L 835,380 L 838,384 L 862,376 L 863,377 " />
</g>
<g class="map_elem" id="c_25" label="Pallars Jussà">
<path d="M 283,268 L 285,270 L 287,269 L 293,277 L 288,282 L 280,282 L 276,277 L 276,272 L 279,268 L 283,268 " />
<path d="M 358,182 L 362,183 L 365,190 L 370,189 L 375,197 L 373,202 L 376,207 L 373,210 L 374,216 L 371,222 L 372,230 L 370,239 L 380,249 L 373,252 L 371,259 L 365,263 L 360,283 L 354,288 L 347,287 L 345,293 L 349,296 L 350,301 L 353,300 L 354,308 L 360,309 L 371,315 L 372,313 L 376,314 L 376,316 L 382,316 L 386,319 L 393,319 L 405,323 L 404,321 L 410,326 L 417,327 L 420,335 L 413,338 L 413,344 L 423,350 L 423,357 L 420,362 L 429,370 L 424,381 L 419,381 L 417,398 L 414,399 L 412,397 L 404,411 L 401,413 L 397,418 L 394,427 L 388,431 L 393,442 L 389,451 L 387,452 L 385,437 L 369,439 L 367,438 L 362,444 L 330,443 L 319,436 L 318,432 L 309,436 L 286,432 L 273,433 L 266,429 L 265,426 L 254,426 L 247,423 L 243,414 L 245,406 L 249,403 L 251,394 L 249,377 L 256,372 L 250,367 L 252,359 L 254,358 L 254,351 L 258,345 L 257,342 L 264,329 L 269,304 L 277,294 L 269,292 L 268,287 L 276,281 L 281,285 L 279,289 L 295,298 L 307,298 L 316,306 L 321,303 L 323,289 L 316,285 L 313,273 L 304,269 L 304,265 L 302,266 L 299,260 L 303,255 L 299,249 L 301,244 L 310,244 L 314,242 L 317,234 L 310,230 L 314,229 L 316,226 L 320,228 L 326,218 L 336,215 L 337,212 L 335,206 L 337,203 L 341,199 L 345,199 L 344,196 L 350,193 L 348,189 L 354,183 L 358,182 " />
</g>
<g class="map_elem" id="c_26" label="Pallars Sobirà">
<path d="M 398,70 L 407,76 L 407,79 L 414,84 L 416,97 L 427,107 L 431,107 L 436,103 L 446,102 L 450,98 L 457,101 L 459,105 L 464,103 L 467,103 L 468,106 L 474,103 L 479,104 L 488,101 L 490,104 L 497,103 L 494,112 L 499,116 L 504,115 L 508,120 L 507,129 L 511,129 L 514,135 L 517,135 L 519,150 L 521,152 L 523,159 L 527,162 L 526,166 L 521,171 L 527,179 L 519,184 L 513,198 L 508,199 L 505,204 L 497,202 L 498,214 L 495,220 L 490,220 L 488,227 L 481,238 L 476,235 L 463,239 L 457,234 L 456,239 L 458,250 L 453,252 L 453,267 L 449,275 L 432,284 L 422,301 L 423,304 L 411,304 L 407,310 L 420,319 L 417,328 L 410,326 L 404,321 L 405,323 L 393,319 L 386,319 L 382,316 L 376,316 L 376,314 L 372,313 L 371,315 L 360,309 L 354,308 L 353,300 L 350,301 L 349,296 L 345,293 L 347,287 L 354,288 L 360,283 L 365,263 L 371,259 L 373,252 L 380,249 L 370,239 L 372,230 L 371,222 L 374,216 L 373,210 L 376,207 L 373,202 L 375,197 L 370,189 L 364,189 L 362,183 L 355,183 L 354,172 L 350,169 L 345,169 L 343,165 L 348,162 L 349,158 L 353,157 L 355,155 L 355,152 L 353,152 L 351,148 L 362,119 L 358,114 L 360,111 L 365,110 L 369,104 L 371,106 L 377,106 L 375,97 L 378,94 L 377,89 L 380,83 L 377,77 L 381,68 L 385,71 L 394,70 L 397,67 L 398,70 " />
</g>
<g class="map_elem" id="c_27" label="Pla d'Urgell">
<path d="M 392,601 L 384,609 L 376,611 L 384,601 L 392,601 " />
<path d="M 307,581 L 324,583 L 325,592 L 333,601 L 346,599 L 355,603 L 365,596 L 354,606 L 359,608 L 363,604 L 371,608 L 369,613 L 366,612 L 365,617 L 361,614 L 356,614 L 355,616 L 358,617 L 355,626 L 351,626 L 349,633 L 343,636 L 342,640 L 345,641 L 343,643 L 346,645 L 344,647 L 346,651 L 341,661 L 324,656 L 313,663 L 309,657 L 294,667 L 291,664 L 291,666 L 289,664 L 283,663 L 277,665 L 276,667 L 272,665 L 272,673 L 267,673 L 267,670 L 255,665 L 256,659 L 260,654 L 266,655 L 262,634 L 255,632 L 258,618 L 268,617 L 268,607 L 273,606 L 273,600 L 280,598 L 285,600 L 286,594 L 296,594 L 297,597 L 303,595 L 306,589 L 302,587 L 307,581 " />
<path d="M 287,642 L 274,645 L 268,655 L 273,659 L 282,654 L 287,642 " />
</g>
<g class="map_elem" id="c_28" label="Pla de l'Estany">
<path d="M 1013,362 L 1014,365 L 1021,364 L 1027,365 L 1032,364 L 1029,373 L 1031,375 L 1037,374 L 1042,364 L 1048,367 L 1047,373 L 1053,375 L 1055,382 L 1051,389 L 1056,395 L 1055,403 L 1057,409 L 1053,417 L 1053,428 L 1049,430 L 1049,428 L 1046,430 L 1044,426 L 1040,424 L 1040,429 L 1036,432 L 1037,436 L 1030,436 L 1032,443 L 1023,445 L 1020,443 L 1020,447 L 1012,441 L 1011,435 L 1007,435 L 1004,428 L 993,424 L 994,421 L 988,418 L 979,417 L 975,422 L 959,420 L 965,412 L 967,404 L 970,402 L 969,398 L 966,396 L 968,393 L 967,386 L 971,385 L 970,376 L 976,376 L 974,378 L 977,379 L 986,377 L 991,371 L 997,374 L 1006,371 L 1008,370 L 1007,364 L 1008,361 L 1011,358 L 1013,362 " />
</g>
<g class="map_elem" id="c_29" label="Priorat">
<path d="M 298,773 L 301,779 L 316,774 L 318,777 L 316,784 L 327,788 L 330,803 L 336,798 L 341,801 L 339,810 L 342,817 L 340,817 L 329,825 L 317,828 L 321,846 L 315,850 L 305,849 L 304,853 L 305,855 L 315,857 L 313,859 L 314,864 L 309,876 L 306,887 L 303,890 L 294,891 L 287,884 L 284,886 L 288,889 L 290,895 L 284,896 L 281,901 L 283,902 L 283,907 L 280,912 L 276,911 L 271,909 L 269,905 L 263,903 L 262,897 L 260,902 L 256,902 L 249,893 L 242,892 L 244,890 L 239,883 L 235,880 L 237,876 L 229,863 L 230,859 L 223,851 L 232,844 L 234,844 L 241,837 L 233,833 L 233,823 L 240,815 L 238,805 L 243,801 L 245,795 L 250,791 L 258,791 L 259,784 L 263,779 L 284,783 L 288,769 L 292,767 L 294,766 L 298,773 " />
</g>
<g class="map_elem" id="c_30" label="Ribera d'Ebre">
<path d="M 155,778 L 158,782 L 167,799 L 175,799 L 177,794 L 182,789 L 183,783 L 186,781 L 193,786 L 196,785 L 196,789 L 201,798 L 208,799 L 213,800 L 229,791 L 233,792 L 238,789 L 259,788 L 258,791 L 250,791 L 245,795 L 243,801 L 238,805 L 240,815 L 233,822 L 233,833 L 241,837 L 234,844 L 232,844 L 223,852 L 230,859 L 229,863 L 237,876 L 235,880 L 239,883 L 244,890 L 242,892 L 249,893 L 256,902 L 260,902 L 262,897 L 263,903 L 269,905 L 271,909 L 276,911 L 280,912 L 283,907 L 283,902 L 281,901 L 284,896 L 290,896 L 293,898 L 297,899 L 301,904 L 300,908 L 299,906 L 300,903 L 298,902 L 293,906 L 295,908 L 293,917 L 287,919 L 280,914 L 266,930 L 268,932 L 268,936 L 264,948 L 266,948 L 272,960 L 274,967 L 280,972 L 279,973 L 254,977 L 250,974 L 235,971 L 228,972 L 225,969 L 202,976 L 198,974 L 197,971 L 193,971 L 195,966 L 190,958 L 192,954 L 185,949 L 190,944 L 187,943 L 189,942 L 183,934 L 188,933 L 187,930 L 183,928 L 183,925 L 180,923 L 179,917 L 172,914 L 172,911 L 163,912 L 162,910 L 170,904 L 183,884 L 173,880 L 169,876 L 161,874 L 159,871 L 162,865 L 164,864 L 162,845 L 157,841 L 149,840 L 148,835 L 139,828 L 115,838 L 117,827 L 121,824 L 118,818 L 122,804 L 140,805 L 142,783 L 152,776 L 155,778 " />
</g>
<g class="map_elem" id="c_31" label="Ripollès">
<path d="M 734,396 L 738,399 L 737,402 L 733,401 L 733,407 L 729,409 L 727,399 L 734,398 L 734,396 " />
<path d="M 825,248 L 834,254 L 842,251 L 846,257 L 853,257 L 854,261 L 859,264 L 869,265 L 877,269 L 885,269 L 886,277 L 898,285 L 903,295 L 910,294 L 919,299 L 917,302 L 920,312 L 918,319 L 929,320 L 930,322 L 922,325 L 913,324 L 911,313 L 908,315 L 902,313 L 904,321 L 896,325 L 892,323 L 890,324 L 884,321 L 883,323 L 879,321 L 876,323 L 875,327 L 869,328 L 864,332 L 867,338 L 852,345 L 854,350 L 858,351 L 864,349 L 864,351 L 862,356 L 848,358 L 858,370 L 859,378 L 838,384 L 835,380 L 823,381 L 828,382 L 827,384 L 829,383 L 833,385 L 828,388 L 835,387 L 831,393 L 826,393 L 825,391 L 821,394 L 815,394 L 813,391 L 805,392 L 801,396 L 804,398 L 801,397 L 800,401 L 795,400 L 795,396 L 786,395 L 779,397 L 772,406 L 763,400 L 763,392 L 760,390 L 752,391 L 748,395 L 745,391 L 740,391 L 736,386 L 728,387 L 729,385 L 723,377 L 724,371 L 714,373 L 714,363 L 729,366 L 726,367 L 729,371 L 725,376 L 728,381 L 737,379 L 738,374 L 740,373 L 748,375 L 750,367 L 746,365 L 746,353 L 741,352 L 738,355 L 733,347 L 736,347 L 737,337 L 742,333 L 743,329 L 748,323 L 752,322 L 753,319 L 734,308 L 721,314 L 716,312 L 711,307 L 713,297 L 723,298 L 723,292 L 730,292 L 736,286 L 749,285 L 754,281 L 759,283 L 760,277 L 770,273 L 770,267 L 772,266 L 775,259 L 785,253 L 789,253 L 794,256 L 803,256 L 810,252 L 818,251 L 822,246 L 825,248 " />
</g>
<g class="map_elem" id="c_32" label="Segarra">
<path d="M 499,493 L 505,500 L 508,499 L 514,503 L 516,506 L 514,509 L 519,507 L 521,512 L 527,514 L 535,504 L 541,506 L 542,510 L 542,521 L 540,522 L 543,528 L 539,535 L 531,540 L 539,547 L 546,545 L 528,557 L 514,555 L 511,557 L 504,583 L 512,589 L 496,601 L 503,603 L 501,607 L 504,608 L 504,612 L 511,613 L 508,617 L 511,620 L 514,629 L 521,632 L 521,635 L 518,637 L 514,638 L 513,640 L 507,637 L 499,637 L 497,641 L 487,647 L 493,648 L 493,650 L 499,654 L 505,654 L 505,659 L 499,664 L 503,675 L 496,676 L 491,671 L 466,667 L 462,670 L 454,667 L 449,669 L 448,667 L 435,668 L 432,659 L 416,651 L 416,646 L 423,643 L 425,636 L 423,628 L 425,627 L 425,623 L 424,610 L 427,608 L 429,600 L 432,595 L 427,594 L 419,599 L 413,597 L 422,579 L 422,577 L 415,575 L 420,572 L 417,566 L 421,561 L 419,560 L 431,547 L 435,549 L 439,545 L 445,533 L 461,518 L 465,507 L 465,501 L 467,497 L 466,495 L 469,494 L 472,497 L 476,511 L 483,502 L 487,504 L 488,497 L 499,493 " />
</g>
<g class="map_elem" id="c_33" label="Segrià">
<path d="M 286,644 L 282,654 L 273,659 L 268,655 L 274,645 L 287,642 L 286,644 " />
<path d="M 196,523 L 203,524 L 202,535 L 206,548 L 213,557 L 217,566 L 240,595 L 242,601 L 246,599 L 248,601 L 251,598 L 255,600 L 260,594 L 267,604 L 268,617 L 258,618 L 258,625 L 255,629 L 256,633 L 262,634 L 266,655 L 260,654 L 256,659 L 255,665 L 267,670 L 267,673 L 264,673 L 264,681 L 254,688 L 252,689 L 246,685 L 241,697 L 241,702 L 239,709 L 232,707 L 229,710 L 228,718 L 217,722 L 215,720 L 212,729 L 216,740 L 211,749 L 198,757 L 198,776 L 196,785 L 193,786 L 186,781 L 183,783 L 182,789 L 177,794 L 175,799 L 167,799 L 158,782 L 152,776 L 142,783 L 140,805 L 123,803 L 116,790 L 117,783 L 110,778 L 120,767 L 114,757 L 100,745 L 109,735 L 111,722 L 115,718 L 111,712 L 110,702 L 112,700 L 124,701 L 130,699 L 138,686 L 149,674 L 143,663 L 146,653 L 144,644 L 134,649 L 114,645 L 113,634 L 118,629 L 107,614 L 107,608 L 113,597 L 123,589 L 123,584 L 129,576 L 133,580 L 135,568 L 161,565 L 163,553 L 166,547 L 171,546 L 179,537 L 189,538 L 193,531 L 193,524 L 194,522 L 196,523 " />
</g>
<g class="map_elem" id="c_34" label="Selva">
<path d="M 1040,611 L 1040,610 L 1040,611 " />
<path d="M 1044,610 L 1045,610 L 1044,610 " />
<path d="M 1071,599 L 1071,598 L 1071,599 " />
<path d="M 1081,586 L 1080,586 L 1081,586 " />
<path d="M 1027,616 L 1027,615 L 1027,616 " />
<path d="M 1048,609 L 1048,610 L 1048,609 " />
<path d="M 1020,624 L 1020,623 L 1020,624 " />
<path d="M 1081,585 L 1082,585 L 1081,585 " />
<path d="M 1022,622 L 1021,622 L 1022,622 " />
<path d="M 1072,598 L 1072,597 L 1072,598 " />
<path d="M 1080,588 L 1080,587 L 1080,588 " />
<path d="M 1029,615 L 1028,615 L 1029,615 " />
<path d="M 1027,615 L 1027,616 L 1027,615 " />
<path d="M 1060,607 L 1060,606 L 1060,607 " />
<path d="M 1079,588 L 1080,588 L 1079,588 " />
<path d="M 1050,610 L 1050,609 L 1050,610 " />
<path d="M 1020,623 L 1020,624 L 1019,624 L 1020,623 " />
<path d="M 1053,608 L 1053,609 L 1053,608 " />
<path d="M 1071,598 L 1070,598 L 1071,598 " />
<path d="M 1054,609 L 1054,608 L 1054,609 " />
<path d="M 1020,623 L 1020,624 L 1020,623 " />
<path d="M 1029,615 L 1028,615 L 1029,615 " />
<path d="M 1025,617 L 1026,617 L 1025,617 " />
<path d="M 1048,610 L 1047,610 L 1048,610 " />
<path d="M 1022,622 L 1021,622 L 1021,621 L 1022,622 " />
<path d="M 1070,600 L 1070,601 L 1070,600 " />
<path d="M 910,437 L 921,449 L 925,448 L 926,443 L 930,441 L 938,446 L 941,445 L 945,438 L 949,449 L 955,451 L 956,457 L 959,457 L 959,454 L 963,456 L 968,455 L 967,465 L 970,468 L 971,475 L 973,476 L 972,480 L 967,483 L 969,486 L 975,488 L 981,493 L 983,497 L 981,500 L 988,501 L 999,499 L 1006,507 L 1011,510 L 1020,505 L 1025,506 L 1023,508 L 1025,511 L 1022,523 L 1023,532 L 1025,537 L 1032,531 L 1037,537 L 1041,537 L 1036,554 L 1038,556 L 1043,556 L 1042,554 L 1045,554 L 1045,557 L 1041,558 L 1038,561 L 1038,564 L 1045,575 L 1056,575 L 1066,582 L 1074,577 L 1078,583 L 1082,584 L 1077,591 L 1077,593 L 1075,592 L 1075,595 L 1074,594 L 1068,600 L 1068,603 L 1063,604 L 1060,607 L 1057,605 L 1051,610 L 1050,609 L 1049,608 L 1048,608 L 1048,609 L 1047,610 L 1043,611 L 1042,611 L 1041,611 L 1040,611 L 1038,611 L 1036,612 L 1035,612 L 1035,613 L 1034,613 L 1034,614 L 1031,613 L 1026,616 L 1024,617 L 1025,618 L 1024,618 L 1024,619 L 1021,621 L 1020,623 L 1018,622 L 1014,625 L 1010,635 L 1003,620 L 1008,616 L 1009,610 L 1006,598 L 1010,595 L 1010,593 L 998,593 L 991,588 L 983,596 L 971,603 L 964,599 L 960,604 L 957,615 L 950,614 L 945,618 L 940,610 L 944,604 L 944,596 L 934,597 L 926,601 L 922,599 L 919,591 L 914,586 L 914,579 L 905,578 L 897,572 L 898,566 L 892,568 L 888,566 L 886,560 L 876,557 L 878,555 L 874,549 L 881,541 L 878,536 L 889,531 L 891,526 L 891,521 L 888,519 L 889,514 L 893,513 L 902,504 L 901,497 L 898,493 L 895,493 L 894,490 L 888,491 L 885,488 L 887,482 L 882,478 L 886,475 L 887,478 L 890,477 L 891,479 L 899,477 L 899,474 L 904,470 L 897,465 L 900,462 L 903,464 L 908,462 L 910,458 L 907,457 L 907,452 L 910,451 L 911,447 L 906,444 L 902,437 L 907,433 L 910,437 " />
</g>
<g class="map_elem" id="c_35" label="Solsonès">
<path d="M 619,510 L 620,513 L 622,511 L 624,512 L 622,517 L 617,514 L 619,514 L 619,510 " />
<path d="M 563,355 L 579,360 L 586,359 L 590,362 L 596,362 L 601,375 L 599,376 L 605,379 L 605,376 L 609,377 L 610,375 L 610,378 L 612,375 L 617,376 L 620,380 L 626,378 L 627,371 L 630,369 L 631,379 L 625,384 L 622,383 L 616,393 L 616,396 L 621,401 L 618,407 L 625,410 L 624,415 L 622,418 L 619,419 L 613,417 L 613,422 L 607,430 L 606,439 L 608,440 L 610,435 L 613,437 L 616,445 L 605,451 L 603,458 L 601,456 L 603,454 L 601,452 L 603,449 L 600,448 L 596,459 L 598,463 L 600,458 L 602,463 L 610,462 L 614,466 L 615,463 L 612,457 L 615,453 L 618,459 L 622,459 L 620,463 L 622,467 L 609,475 L 603,474 L 606,468 L 602,467 L 600,470 L 597,469 L 595,477 L 597,486 L 594,488 L 597,495 L 592,495 L 584,505 L 580,507 L 578,506 L 573,514 L 572,511 L 569,512 L 566,518 L 572,521 L 578,516 L 585,517 L 589,529 L 587,534 L 589,536 L 581,539 L 583,542 L 582,548 L 575,551 L 573,555 L 577,563 L 575,568 L 570,569 L 567,566 L 566,568 L 563,568 L 563,572 L 558,571 L 557,578 L 553,578 L 553,580 L 551,580 L 552,574 L 544,571 L 541,562 L 534,561 L 536,567 L 534,568 L 534,570 L 529,571 L 526,568 L 530,565 L 530,556 L 546,545 L 539,547 L 531,540 L 539,535 L 543,528 L 540,522 L 542,521 L 541,506 L 535,504 L 527,514 L 521,512 L 519,507 L 514,509 L 516,506 L 514,503 L 508,499 L 505,500 L 500,493 L 497,493 L 488,497 L 487,504 L 483,502 L 476,511 L 472,497 L 469,494 L 466,495 L 472,488 L 473,482 L 466,479 L 465,475 L 468,466 L 472,463 L 471,460 L 483,461 L 492,457 L 489,446 L 491,442 L 490,438 L 493,436 L 490,434 L 492,432 L 491,419 L 488,421 L 482,419 L 478,410 L 480,400 L 488,396 L 489,394 L 493,393 L 495,389 L 491,384 L 499,381 L 506,383 L 516,379 L 518,379 L 524,387 L 551,368 L 552,365 L 554,364 L 554,358 L 563,355 " />
<path d="M 477,462 L 474,462 L 475,466 L 477,464 L 477,462 " />
<path d="M 601,403 L 596,404 L 609,408 L 615,406 L 613,404 L 601,403 " />
</g>
<g class="map_elem" id="c_36" label="Tarragonès">
<path d="M 497,884 L 497,883 L 497,884 " />
<path d="M 487,885 L 486,885 L 487,885 " />
<path d="M 483,824 L 486,825 L 487,829 L 498,832 L 503,830 L 501,832 L 500,838 L 495,840 L 496,848 L 501,845 L 508,845 L 512,850 L 527,847 L 529,858 L 533,865 L 530,868 L 530,866 L 522,868 L 508,876 L 501,880 L 499,881 L 500,882 L 499,884 L 498,884 L 499,882 L 496,884 L 491,883 L 477,887 L 468,885 L 459,886 L 449,892 L 444,893 L 440,899 L 435,901 L 433,905 L 428,909 L 435,899 L 440,897 L 437,895 L 434,898 L 433,896 L 433,899 L 431,900 L 432,898 L 428,899 L 430,902 L 429,903 L 425,901 L 428,905 L 422,902 L 425,907 L 422,903 L 420,904 L 421,907 L 420,906 L 418,908 L 415,913 L 416,915 L 411,920 L 408,920 L 407,916 L 403,915 L 402,912 L 392,911 L 387,906 L 383,901 L 384,893 L 387,891 L 390,895 L 396,896 L 394,883 L 398,883 L 405,887 L 410,894 L 414,894 L 411,890 L 414,889 L 413,884 L 409,882 L 410,879 L 415,880 L 413,882 L 415,883 L 419,884 L 420,883 L 412,874 L 409,874 L 403,863 L 415,850 L 418,842 L 416,842 L 417,839 L 415,837 L 417,838 L 420,833 L 423,838 L 425,835 L 431,842 L 436,841 L 437,848 L 446,850 L 444,843 L 440,839 L 442,837 L 446,839 L 449,834 L 453,832 L 455,834 L 460,831 L 466,835 L 471,841 L 475,840 L 477,843 L 477,841 L 481,838 L 480,835 L 477,836 L 474,832 L 480,832 L 479,830 L 483,824 " />
<path d="M 439,894 L 438,895 L 441,896 L 441,894 L 439,894 " />
</g>
<g class="map_elem" id="c_37" label="Terra Alta">
<path d="M 119,824 L 121,824 L 117,827 L 115,838 L 139,828 L 148,835 L 149,840 L 157,841 L 162,845 L 164,864 L 162,865 L 159,871 L 161,874 L 169,876 L 173,880 L 183,884 L 170,904 L 162,910 L 163,912 L 172,911 L 172,914 L 179,917 L 180,923 L 183,925 L 183,928 L 188,932 L 174,941 L 164,944 L 156,953 L 144,951 L 140,958 L 121,962 L 118,967 L 112,968 L 109,984 L 111,994 L 96,1014 L 88,1018 L 81,1029 L 74,1028 L 76,1025 L 70,1019 L 66,1009 L 68,1000 L 62,995 L 67,990 L 68,985 L 66,983 L 68,982 L 68,978 L 76,970 L 75,966 L 79,963 L 80,956 L 84,954 L 83,952 L 80,952 L 80,945 L 75,939 L 77,935 L 72,932 L 73,929 L 80,929 L 72,924 L 67,918 L 66,921 L 62,921 L 62,915 L 57,917 L 62,911 L 58,908 L 58,897 L 51,896 L 51,888 L 55,881 L 52,876 L 59,873 L 57,871 L 70,874 L 73,868 L 72,865 L 79,866 L 90,860 L 98,829 L 102,830 L 105,826 L 113,829 L 114,822 L 119,824 " />
</g>
<g class="map_elem" id="c_38" label="Urgell">
<path d="M 341,577 L 339,579 L 344,574 L 349,565 L 346,572 L 341,577 " />
<path d="M 374,525 L 378,525 L 381,536 L 377,535 L 376,538 L 368,543 L 365,539 L 366,534 L 364,534 L 364,529 L 368,526 L 369,527 L 374,525 " />
<path d="M 396,526 L 401,530 L 403,538 L 399,543 L 395,540 L 393,548 L 406,552 L 407,547 L 412,544 L 407,553 L 408,561 L 415,563 L 421,561 L 417,566 L 420,573 L 415,575 L 422,577 L 422,580 L 413,597 L 419,599 L 427,594 L 432,595 L 427,608 L 424,610 L 425,623 L 425,627 L 423,628 L 425,636 L 423,643 L 415,647 L 418,653 L 432,659 L 435,668 L 431,678 L 416,682 L 415,683 L 419,685 L 414,685 L 418,686 L 414,695 L 415,699 L 418,701 L 419,707 L 401,712 L 393,717 L 391,713 L 385,712 L 369,700 L 367,701 L 367,698 L 361,699 L 357,694 L 345,691 L 349,682 L 347,677 L 349,675 L 340,666 L 346,651 L 344,647 L 346,645 L 343,643 L 345,641 L 342,640 L 343,636 L 349,633 L 351,626 L 355,626 L 358,617 L 355,616 L 356,614 L 361,614 L 365,617 L 366,612 L 369,613 L 371,608 L 363,604 L 359,608 L 354,606 L 366,597 L 364,596 L 355,603 L 347,599 L 349,595 L 350,586 L 344,584 L 341,586 L 339,580 L 345,575 L 352,565 L 351,567 L 359,567 L 364,564 L 368,568 L 379,557 L 392,528 L 394,526 L 396,526 " />
<path d="M 392,600 L 384,601 L 376,611 L 384,609 L 392,600 " />
</g>
<g class="map_elem" id="c_39" label="Val d'Aran">
<path d="M 266,30 L 270,30 L 273,35 L 288,41 L 297,39 L 308,46 L 316,47 L 341,66 L 345,66 L 346,62 L 354,58 L 362,67 L 370,66 L 381,68 L 377,77 L 380,83 L 377,89 L 378,94 L 375,97 L 377,106 L 371,106 L 369,104 L 365,110 L 360,111 L 358,114 L 362,119 L 351,148 L 353,152 L 355,152 L 355,155 L 353,157 L 349,158 L 349,162 L 345,164 L 336,162 L 334,155 L 328,153 L 328,146 L 322,143 L 321,145 L 303,155 L 298,151 L 298,148 L 281,152 L 273,150 L 271,151 L 260,146 L 257,143 L 259,136 L 256,128 L 252,127 L 248,118 L 243,113 L 249,112 L 249,108 L 252,103 L 249,98 L 251,96 L 248,92 L 245,82 L 238,80 L 241,75 L 247,70 L 239,66 L 249,57 L 247,51 L 249,46 L 246,44 L 245,39 L 252,35 L 252,31 L 257,31 L 263,28 L 266,30 " />
</g>
<g class="map_elem" id="c_40" label="Vallès Occidental">
<path d="M 765,600 L 770,603 L 773,601 L 775,612 L 772,619 L 773,624 L 768,623 L 759,629 L 764,631 L 766,636 L 768,636 L 778,643 L 784,658 L 790,657 L 793,655 L 798,670 L 796,670 L 792,677 L 799,693 L 797,699 L 793,700 L 797,707 L 798,705 L 806,711 L 802,714 L 801,721 L 796,720 L 789,723 L 789,725 L 784,727 L 783,732 L 772,733 L 767,744 L 760,742 L 758,740 L 755,742 L 749,738 L 751,742 L 749,744 L 752,744 L 750,745 L 751,749 L 748,747 L 747,742 L 744,739 L 745,734 L 735,735 L 731,728 L 722,726 L 720,738 L 714,731 L 713,724 L 708,726 L 704,720 L 702,722 L 694,710 L 697,708 L 699,702 L 705,701 L 705,695 L 699,691 L 697,680 L 693,678 L 694,671 L 690,672 L 680,667 L 683,666 L 678,662 L 675,662 L 673,661 L 672,652 L 674,648 L 676,651 L 684,649 L 682,633 L 689,625 L 694,625 L 698,629 L 699,626 L 702,630 L 702,633 L 705,635 L 717,634 L 720,631 L 727,630 L 728,625 L 725,620 L 728,618 L 727,613 L 732,609 L 731,606 L 736,600 L 743,603 L 748,602 L 756,605 L 765,600 " />
</g>
<g class="map_elem" id="c_41" label="Vallès Oriental">
<path d="M 867,558 L 884,559 L 887,561 L 888,566 L 892,568 L 898,566 L 897,572 L 905,578 L 914,579 L 914,586 L 919,591 L 922,599 L 926,601 L 934,597 L 944,596 L 944,604 L 940,610 L 943,617 L 948,622 L 944,625 L 942,630 L 925,631 L 921,642 L 916,646 L 907,648 L 902,646 L 902,644 L 891,644 L 890,646 L 889,644 L 879,644 L 871,655 L 869,655 L 864,661 L 862,661 L 849,678 L 848,677 L 847,686 L 840,691 L 845,696 L 842,700 L 836,701 L 828,700 L 822,703 L 814,713 L 806,711 L 798,705 L 797,707 L 793,700 L 797,699 L 799,693 L 792,677 L 796,670 L 798,670 L 793,655 L 790,657 L 784,658 L 778,643 L 768,636 L 766,636 L 764,631 L 761,629 L 759,629 L 768,623 L 773,624 L 772,619 L 775,612 L 773,601 L 782,601 L 786,603 L 792,600 L 796,606 L 801,604 L 802,607 L 811,605 L 812,606 L 813,595 L 821,594 L 821,592 L 818,592 L 820,587 L 816,585 L 817,577 L 814,569 L 823,558 L 824,562 L 831,566 L 836,561 L 842,566 L 845,566 L 847,578 L 850,578 L 859,575 L 859,569 L 858,565 L 863,562 L 865,556 L 867,558 " />
</g>
<g class="map_elem" id="c_42" label="Moianès">
<path d="M 776,506 L 778,510 L 776,515 L 770,518 L 773,521 L 772,526 L 778,534 L 783,532 L 791,534 L 793,530 L 794,538 L 797,542 L 793,555 L 789,561 L 793,565 L 794,572 L 794,583 L 792,588 L 795,594 L 802,596 L 811,593 L 813,595 L 812,606 L 811,605 L 802,607 L 801,604 L 796,606 L 792,600 L 786,603 L 782,601 L 770,603 L 764,600 L 760,604 L 756,605 L 748,602 L 742,603 L 737,600 L 732,605 L 729,595 L 725,594 L 725,587 L 720,584 L 714,582 L 707,585 L 697,585 L 694,579 L 693,580 L 694,574 L 689,571 L 707,568 L 716,563 L 738,556 L 734,549 L 729,548 L 726,543 L 716,541 L 715,539 L 719,532 L 731,523 L 725,518 L 730,518 L 730,504 L 742,511 L 748,509 L 752,510 L 758,506 L 759,508 L 764,509 L 773,505 L 774,503 L 776,506 " />
</g>
</g>
</g>

</svg>